<svg xmlns="http://www.w3.org/2000/svg" xmlns:xlink="http://www.w3.org/1999/xlink" width="220.293" height="238.429" viewBox="0 0 220.293 238.429">
  <defs>
    <linearGradient id="linear-gradient" x1="0.518" y1="0.5" x2="-0.006" y2="0.5" gradientUnits="objectBoundingBox">
      <stop offset="0" stop-color="#4daafb"/>
      <stop offset="1" stop-color="#3d56f5"/>
    </linearGradient>
    <linearGradient id="linear-gradient-3" x1="0.5" x2="0.5" y2="1" gradientUnits="objectBoundingBox">
      <stop offset="0" stop-color="#f6f6f6"/>
      <stop offset="0.999" stop-color="#dbdbdb"/>
      <stop offset="1" stop-color="#fff"/>
    </linearGradient>
    <filter id="Path_1423" x="96.657" y="109.705" width="27.608" height="38.588" filterUnits="userSpaceOnUse">
      <feOffset dy="4" input="SourceAlpha"/>
      <feGaussianBlur stdDeviation="2" result="blur"/>
      <feFlood flood-color="#3d56f5"/>
      <feComposite operator="in" in2="blur"/>
      <feComposite in="SourceGraphic"/>
    </filter>
  </defs>
  <g id="Group_507" data-name="Group 507" transform="translate(-166.854 -812)">
    <g id="Group_322" data-name="Group 322" transform="translate(233.655 882.144)" style="isolation: isolate">
      <path id="Path_1389" data-name="Path 1389" d="M1096.078,169.724c-22.2,0-40.01-18.924-43.556-22.96v97.9h-.876c.29.083.582.166.876.245C1100.435,232.046,1096.078,169.724,1096.078,169.724Z" transform="translate(-1008.864 -146.764)" fill="url(#linear-gradient)" style="mix-blend-mode: overlay;isolation: isolate"/>
      <path id="Path_1390" data-name="Path 1390" d="M1012.375,146.764c-3.546,4.036-21.36,22.96-43.556,22.96,0,0-4.3,61.556,42.679,74.937h.876Z" transform="translate(-968.716 -146.764)" fill="url(#linear-gradient)" style="mix-blend-mode: overlay;isolation: isolate"/>
    </g>
    <g id="Group_327" data-name="Group 327" transform="translate(-118.991 31.291)">
      <path id="Path_1391" data-name="Path 1391" d="M1012.148,244.809l-.065-.017c-.3-.079-.588-.163-.881-.246-24.378-6.944-34.734-27.03-39.128-42.658a107.645,107.645,0,0,1-3.73-32.535l.016-.231h.232c22.15,0,40.013-19.055,43.37-22.875l.186-.212.186.212c3.356,3.82,21.22,22.875,43.37,22.875h.232l.016.231a107.636,107.636,0,0,1-3.82,32.854c-2.854,10.013-7.152,18.535-12.774,25.331a51.949,51.949,0,0,1-27.145,17.253Zm-43.322-75.191a107.677,107.677,0,0,0,3.73,32.149A69.1,69.1,0,0,0,984.98,226.8a51.351,51.351,0,0,0,26.359,17.266c.269.076.538.152.809.226a51.458,51.458,0,0,0,26.823-17.068c5.578-6.741,9.844-15.2,12.68-25.143a107.645,107.645,0,0,0,3.819-32.466c-9.379-.055-19.026-3.421-28.678-10.009a82.415,82.415,0,0,1-14.644-12.823A82.407,82.407,0,0,1,997.5,159.61C987.852,166.2,978.205,169.564,968.826,169.618Z" transform="translate(-615.843 704.441)" fill="url(#linear-gradient-3)"/>
      <g id="Group_325" data-name="Group 325" transform="translate(350 850)" style="isolation: isolate">
        <g id="Group_323" data-name="Group 323" transform="translate(2.65 0.852)">
          <path id="Path_1392" data-name="Path 1392" d="M1035.154,188.51l-3.431-6.31,8.754-4.484,5.992,12.345.12-.058-5.994-12.348,15.343-7.859c0-.046,0-.073,0-.073l-.142,0-15.255,7.814-6.618-13.635.136,0-.369-.2-9.149,5.275-11.961-22-.2-.222-.047.053,12.031,22.126-20.66-13.71.008-.023-.071-.025-.12.1.015.024-6.176,17.724-.05.056-12.246-6.608-.165.064,2.394,6.845-12.5.791-5.89-4.46h-.077s0,.047-.008.134l2.241,4.561-2.332.148c0,.044,0,.088,0,.133l2.394-.152,3.232,6.578-5.117,3.014.013.147,5.162-3.041,3.7,7.529-6.328,10.5q.03.122.061.245l9-5.189,5.335,10.858-.034.1.1.035.009.019-10.755,5.509.087.215,16.223,6.153L981.256,222.1l.073.113,10.649-4.923.224.085-3.525,14.015.11.109,3.516-13.985,6.145,8.42-9.63,5.6.1.1,9.61-5.586,5.956,8.162-7.353,4.026.127.082,7.305-4,7.711,10.567.1.029.168-.046-.031,0,9.032-9.876,3.083,5.037.116-.065-3.106-5.074,3.488-3.814,7.66,3.353.112-.1-7.677-3.36,3.842-4.2.128.021,4.3,7.033.1-.09-4.227-6.914,4.585.746-.073,5.915.135-.12.072-5.773,4.788.779.1-.119-4.887-.8.112-9.022,6.611,4.861.684,1.754.093-.127-.577-1.48,1.071.788c.026-.037.052-.072.077-.109l-1.239-.911-2.134-5.478,7.77-.932.073-.143-.026,0-12.543-11.059-.038-.1.129-.156,7.6-4.417,6.592,12.123.068-.155L1041.943,201l9.714,3.08.038-.127-9.81-3.111,12.3-7.149.032-.173-12.416,7.217-1.536-2.825,6.3-7.647,8.025,1.136c.007-.044.014-.088.021-.132l-7.947-1.126,9.247-11.23q.005-.112.011-.223l-9.412,11.431Zm-.164-.023-7.352-1.042.964-3.646,3-1.538Zm-14.239,24.481-15.734,9.146-.32-.14,9.382-18.351,7.656,5.63-.936,3.539,0-.006-.114.07Zm-28.308-25.256,7.595,5.585-3.36,6.52Zm4.15,12.268-.031.061-.006.023-10.189,5.219-.048-.1,6.026-17.352Zm27.755-30.886-9.13,5.265-5.252-8.68,14.345,3.39Zm-16.741,9.807.092-.053,14.744,7.957-18.278,9.362-3.958-2.91Zm-7.508,14.276-7.582-5.576,14.877-8.578Zm22.355-6.229-8.423,16.475-9.747-7.168Zm.185-.069,3.486,5.761-4.355,16.475-7.631-5.612Zm-14.806-8.109,7.338-4.231,7.361,12.163Zm7.269-4.345-7.383,4.258.007-.013.01-.02-2.42-14.07,4.468,1.056Zm-9.811-9.987-1.5-8.7,5.892,9.737Zm2.306,14.191-.006.011-10.138-5.471.023-.064,7.713-8.474ZM997.409,173.3l10.122,5.462-.025.047-15.038,8.671Zm2.736,20.08,3.887,2.859-7.284,3.731Zm4.007,2.947,9.818,7.22-9.4,18.38-.188-.071L996.776,200.1Zm1.015,25.857,15.537-9.031-3.751,14.19Zm11.672,5.255-8.814,4.827-3.414-9.759.412-.239Zm5.01-18.1,2.272,1.671-3.207,1.864Zm.037-.138,4.335-16.4,7.606,12.569-9.581,5.568Zm4.286-16.737L1022.8,186.9l4.665.661Zm-3.357-5.7,5.625-2.881-.937,3.546Zm5.83-3.136,1.211-4.58,1.683,3.1Zm11.772-6.03-8.76,4.487-1.752-3.223,3.923-14.839Zm-6.677-13.766-3.928,14.859L1024.6,169.1Zm-3.977,15.046-1.277,4.831-5.788,2.964,1.829-17.424Zm-7.183,7.649-7.295-12.054,9.112-5.254Zm1.409-17.67-14.122-3.337-6.1-10.083Zm-20.375-13.373,1.545,8.981-7.573,8.32Zm-18.545,11.154,12.22,6.594-4.947,14.2-4.874-13.935.072-.119-.111.007Zm2.31,7,4.793,13.7-8.96-6.784Zm-4.274,6.837-3.237-2.45,7.306-4.3Zm4.189-6.955-.011.018-.01-.016Zm-.046,0-7.494,4.414-4.8-3.636Zm-18.224-3.542,5.561,4.21-3.387.215Zm2.237,4.554,3.486-.221,4.882,3.7-5.166,3.043Zm3.261,6.638,5.221-3.076,3.292,2.492-4.847,8.045ZM971.9,199.334l6.276-10.418,2.6,5.3Zm6.358-10.553,4.884-8.107,9.109,6.9.009.024L980.9,194.148Zm7.976,16.235-5.281-10.749,11.27-6.5Zm5.737,12.126-16.357-6.2,10.691-5.477,5.725,11.653Zm.271.062-.063-.087L986.426,205.4l10.087-5.167Zm4.418-17.027,7.56,21.611-11.862-4.5Zm-4.233,17.28,11.85,4.495.171.489-5.886,3.421Zm6.213,8.513,5.852-3.4,3.412,9.756-3.306,1.81Zm6.037,8.273,3.272-1.791,4.215,12.05Zm7.689,10.434-4.3-12.29,8.825-4.833Zm.142-.018,4.512-17.07,4.451,7.27Zm9.056-9.9-4.394-7.178,7.826,3.426Zm7.483-8.138-.035-.006L1025.1,230.9l-8.018-3.51,3.771-14.266,8.255,13.5Zm4.9.8-4.678-.762-8.34-13.643,3.3-1.92,9.827,7.227Zm6.765-4.372-6.5-4.783,4.434-.532Zm5.706-6.382-7.69.922-4.571-11.733Zm-7.826.939-4.472.537-.058.007v.008l-9.7-7.136,9.454-5.5-.012.014.141.124Zm-4.537-12.375-.119.07-7.674-12.68,1.334-5.045,7.466,1.058,5.036,9.26Zm7.623-4.43-7.292,4.238,5.78-7.019Zm-1.49-3.018-4.962-9.127,11.173,1.583Z" transform="translate(-968.724 -146.764)" fill="url(#linear-gradient-3)" style="mix-blend-mode: overlay;isolation: isolate"/>
        </g>
        <g id="Group_324" data-name="Group 324">
          <circle id="Ellipse_861" data-name="Ellipse 861" cx="2.09" cy="2.09" r="2.09" transform="translate(36.488 74.179)" fill="url(#linear-gradient-3)" style="mix-blend-mode: color-dodge;isolation: isolate"/>
          <path id="Path_1393" data-name="Path 1393" d="M1062.075,301.511a1.761,1.761,0,1,1-1.761-1.761A1.761,1.761,0,0,1,1062.075,301.511Z" transform="translate(-1009.562 -219.974)" fill="url(#linear-gradient-3)" style="mix-blend-mode: color-dodge;isolation: isolate"/>
          <path id="Path_1394" data-name="Path 1394" d="M1038.135,315.088a1.41,1.41,0,1,1-1.41-1.41A1.41,1.41,0,0,1,1038.135,315.088Z" transform="translate(-998.311 -226.717)" fill="url(#linear-gradient-3)" style="mix-blend-mode: color-dodge;isolation: isolate"/>
          <path id="Path_1395" data-name="Path 1395" d="M1008.124,309.385a1.527,1.527,0,1,1-1.528-1.527A1.528,1.528,0,0,1,1008.124,309.385Z" transform="translate(-983.669 -223.899)" fill="url(#linear-gradient-3)" style="mix-blend-mode: color-dodge;isolation: isolate"/>
          <circle id="Ellipse_862" data-name="Ellipse 862" cx="1.327" cy="1.327" r="1.327" transform="translate(45.036 97.443)" fill="url(#linear-gradient-3)" style="mix-blend-mode: color-dodge;isolation: isolate"/>
          <path id="Path_1396" data-name="Path 1396" d="M1077.47,326.724a1.57,1.57,0,1,1-1.569-1.569A1.569,1.569,0,0,1,1077.47,326.724Z" transform="translate(-1017.2 -232.273)" fill="url(#linear-gradient-3)" style="mix-blend-mode: color-dodge;isolation: isolate"/>
          <circle id="Ellipse_863" data-name="Ellipse 863" cx="1.761" cy="1.761" r="1.761" transform="translate(66.421 57.636)" fill="url(#linear-gradient-3)" style="mix-blend-mode: color-dodge;isolation: isolate"/>
          <path id="Path_1397" data-name="Path 1397" d="M1080.132,234.541a1.277,1.277,0,1,1-1.277-1.277A1.277,1.277,0,0,1,1080.132,234.541Z" transform="translate(-1018.772 -187.787)" fill="url(#linear-gradient-3)" style="mix-blend-mode: color-dodge;isolation: isolate"/>
          <circle id="Ellipse_864" data-name="Ellipse 864" cx="1.05" cy="1.05" r="1.05" transform="translate(13.782 47.264)" fill="url(#linear-gradient-3)" style="mix-blend-mode: color-dodge;isolation: isolate"/>
          <circle id="Ellipse_865" data-name="Ellipse 865" cx="0.996" cy="0.996" r="0.996" transform="translate(4.798 52.5)" fill="url(#linear-gradient-3)" style="mix-blend-mode: color-dodge;isolation: isolate"/>
          <path id="Path_1398" data-name="Path 1398" d="M1097.128,226.137a1.958,1.958,0,1,1-1.957-1.957A1.958,1.958,0,0,1,1097.128,226.137Z" transform="translate(-1026.341 -183.39)" fill="url(#linear-gradient-3)" style="mix-blend-mode: color-dodge;isolation: isolate"/>
          <circle id="Ellipse_866" data-name="Ellipse 866" cx="1.277" cy="1.277" r="1.277" transform="translate(72.684 50.658)" fill="url(#linear-gradient-3)" style="mix-blend-mode: color-dodge;isolation: isolate"/>
          <path id="Path_1399" data-name="Path 1399" d="M1058.721,199.166a1.277,1.277,0,1,1-1.277-1.277A1.277,1.277,0,0,1,1058.721,199.166Z" transform="translate(-1008.407 -170.662)" fill="url(#linear-gradient-3)" style="mix-blend-mode: color-dodge;isolation: isolate"/>
          <circle id="Ellipse_867" data-name="Ellipse 867" cx="0.911" cy="0.911" r="0.911" transform="translate(43.027 18.754)" fill="url(#linear-gradient-3)" style="mix-blend-mode: color-dodge;isolation: isolate"/>
          <circle id="Ellipse_868" data-name="Ellipse 868" cx="1.277" cy="1.277" r="1.277" transform="translate(79.316 69.466)" fill="url(#linear-gradient-3)" style="mix-blend-mode: color-dodge;isolation: isolate"/>
          <circle id="Ellipse_869" data-name="Ellipse 869" cx="1.277" cy="1.277" r="1.277" transform="translate(29.983 25.974)" fill="url(#linear-gradient-3)" style="mix-blend-mode: color-dodge;isolation: isolate"/>
          <circle id="Ellipse_870" data-name="Ellipse 870" cx="1.277" cy="1.277" r="1.277" transform="translate(8.052 27.025)" fill="url(#linear-gradient-3)" style="mix-blend-mode: color-dodge;isolation: isolate"/>
          <path id="Path_1400" data-name="Path 1400" d="M969.668,218.8a1.587,1.587,0,1,1-1.587-1.587A1.587,1.587,0,0,1,969.668,218.8Z" transform="translate(-964.994 -180.016)" fill="url(#linear-gradient-3)" style="mix-blend-mode: color-dodge;isolation: isolate"/>
          <path id="Path_1401" data-name="Path 1401" d="M1129.874,255.513a1.761,1.761,0,1,1-1.761-1.761A1.761,1.761,0,0,1,1129.874,255.513Z" transform="translate(-1042.384 -197.706)" fill="url(#linear-gradient-3)" style="mix-blend-mode: color-dodge;isolation: isolate"/>
          <path id="Path_1402" data-name="Path 1402" d="M1119.654,229.567a1.222,1.222,0,1,1-1.222-1.223A1.222,1.222,0,0,1,1119.654,229.567Z" transform="translate(-1037.958 -185.406)" fill="url(#linear-gradient-3)" style="mix-blend-mode: color-dodge;isolation: isolate"/>
          <path id="Path_1403" data-name="Path 1403" d="M1135.05,232.158a1.015,1.015,0,1,1-1.015-1.015A1.015,1.015,0,0,1,1135.05,232.158Z" transform="translate(-1045.612 -186.761)" fill="url(#linear-gradient-3)" style="mix-blend-mode: color-dodge;isolation: isolate"/>
          <path id="Path_1404" data-name="Path 1404" d="M1108.029,205.738a1.043,1.043,0,1,1-1.043-1.043A1.043,1.043,0,0,1,1108.029,205.738Z" transform="translate(-1032.504 -173.957)" fill="url(#linear-gradient-3)" style="mix-blend-mode: color-dodge;isolation: isolate"/>
          <path id="Path_1405" data-name="Path 1405" d="M1091.2,214.8a.872.872,0,1,1-.872-.872A.872.872,0,0,1,1091.2,214.8Z" transform="translate(-1024.52 -178.427)" fill="url(#linear-gradient-3)" style="mix-blend-mode: color-dodge;isolation: isolate"/>
          <circle id="Ellipse_871" data-name="Ellipse 871" cx="1.153" cy="1.153" r="1.153" transform="translate(62.708 31.82)" fill="url(#linear-gradient-3)" style="mix-blend-mode: color-dodge;isolation: isolate"/>
          <path id="Path_1406" data-name="Path 1406" d="M1094.954,313.756a2.335,2.335,0,1,1-2.334-2.335A2.334,2.334,0,0,1,1094.954,313.756Z" transform="translate(-1024.923 -225.624)" fill="url(#linear-gradient-3)" style="mix-blend-mode: color-dodge;isolation: isolate"/>
          <path id="Path_1407" data-name="Path 1407" d="M1086.081,300.57a1.426,1.426,0,1,1-1.426-1.426A1.425,1.425,0,0,1,1086.081,300.57Z" transform="translate(-1021.508 -219.681)" fill="url(#linear-gradient-3)" style="mix-blend-mode: color-dodge;isolation: isolate"/>
          <path id="Path_1408" data-name="Path 1408" d="M1029.7,235.738a1.065,1.065,0,1,1-1.065-1.065A1.065,1.065,0,0,1,1029.7,235.738Z" transform="translate(-994.56 -188.469)" fill="url(#linear-gradient-3)" style="mix-blend-mode: color-dodge;isolation: isolate"/>
          <path id="Path_1409" data-name="Path 1409" d="M982.421,268.174a2.925,2.925,0,1,1-2.925-2.925A2.925,2.925,0,0,1,982.421,268.174Z" transform="translate(-969.873 -203.272)" fill="url(#linear-gradient-3)" style="mix-blend-mode: color-dodge;isolation: isolate"/>
          <path id="Path_1410" data-name="Path 1410" d="M968.878,189.68a2.646,2.646,0,1,1-2.645-2.645A2.646,2.646,0,0,1,968.878,189.68Z" transform="translate(-963.587 -165.407)" fill="url(#linear-gradient-3)" style="mix-blend-mode: color-dodge;isolation: isolate"/>
          <path id="Path_1411" data-name="Path 1411" d="M1023.117,248.586a1.667,1.667,0,1,1-1.667-1.667A1.667,1.667,0,0,1,1023.117,248.586Z" transform="translate(-990.792 -194.398)" fill="url(#linear-gradient-3)" style="mix-blend-mode: color-dodge;isolation: isolate"/>
          <circle id="Ellipse_872" data-name="Ellipse 872" cx="1.208" cy="1.208" r="1.208" transform="translate(10.784 41.439)" fill="url(#linear-gradient-3)" style="mix-blend-mode: color-dodge;isolation: isolate"/>
          <path id="Path_1412" data-name="Path 1412" d="M1095.834,284.667a1.208,1.208,0,1,1-1.208-1.208A1.208,1.208,0,0,1,1095.834,284.667Z" transform="translate(-1026.44 -212.087)" fill="url(#linear-gradient-3)" style="mix-blend-mode: color-dodge;isolation: isolate"/>
          <path id="Path_1413" data-name="Path 1413" d="M1070.216,273.926a1.142,1.142,0,1,1-1.142-1.142A1.142,1.142,0,0,1,1070.216,273.926Z" transform="translate(-1014.102 -206.92)" fill="url(#linear-gradient-3)" style="mix-blend-mode: color-dodge;isolation: isolate"/>
          <path id="Path_1414" data-name="Path 1414" d="M1073.507,222.775a1.576,1.576,0,1,1-1.576-1.577A1.576,1.576,0,0,1,1073.507,222.775Z" transform="translate(-1015.274 -181.946)" fill="url(#linear-gradient-3)" style="mix-blend-mode: color-dodge;isolation: isolate"/>
          <path id="Path_1415" data-name="Path 1415" d="M1076.681,188.751a1.222,1.222,0,1,1-1.223-1.223A1.223,1.223,0,0,1,1076.681,188.751Z" transform="translate(-1017.154 -165.646)" fill="url(#linear-gradient-3)" style="mix-blend-mode: color-dodge;isolation: isolate"/>
          <circle id="Ellipse_873" data-name="Ellipse 873" cx="1.082" cy="1.082" r="1.082" transform="translate(38.101 17.651)" fill="url(#linear-gradient-3)" style="mix-blend-mode: color-dodge;isolation: isolate"/>
          <circle id="Ellipse_874" data-name="Ellipse 874" cx="1.222" cy="1.222" r="1.222" transform="translate(36.441 8.391)" fill="url(#linear-gradient-3)" style="mix-blend-mode: color-dodge;isolation: isolate"/>
          <path id="Path_1416" data-name="Path 1416" d="M1094.968,177.418a2.083,2.083,0,1,1-2.083-2.083A2.083,2.083,0,0,1,1094.968,177.418Z" transform="translate(-1025.174 -159.743)" fill="url(#linear-gradient-3)" style="mix-blend-mode: color-dodge;isolation: isolate"/>
          <path id="Path_1417" data-name="Path 1417" d="M1137.467,190.626a1.326,1.326,0,1,1-1.326-1.326A1.326,1.326,0,0,1,1137.467,190.626Z" transform="translate(-1046.481 -166.504)" fill="url(#linear-gradient-3)" style="mix-blend-mode: color-dodge;isolation: isolate"/>
          <circle id="Ellipse_875" data-name="Ellipse 875" cx="1.6" cy="1.6" r="1.6" transform="translate(45.003)" fill="url(#linear-gradient-3)" style="mix-blend-mode: color-dodge;isolation: isolate"/>
          <circle id="Ellipse_876" data-name="Ellipse 876" cx="1.374" cy="1.374" r="1.374" transform="translate(88.538 31.574)" fill="url(#linear-gradient-3)" style="mix-blend-mode: color-dodge;isolation: isolate"/>
          <path id="Path_1418" data-name="Path 1418" d="M1014.878,224.922a1.342,1.342,0,1,1-1.341-1.342A1.342,1.342,0,0,1,1014.878,224.922Z" transform="translate(-987.119 -183.099)" fill="url(#linear-gradient-3)" style="mix-blend-mode: color-dodge;isolation: isolate"/>
          <path id="Path_1419" data-name="Path 1419" d="M996.631,211.373a1.018,1.018,0,1,1-1.017-1.017A1.018,1.018,0,0,1,996.631,211.373Z" transform="translate(-978.599 -176.697)" fill="url(#linear-gradient-3)" style="mix-blend-mode: color-dodge;isolation: isolate"/>
          <path id="Path_1420" data-name="Path 1420" d="M1044.225,207.646a1.342,1.342,0,1,1-1.342-1.342A1.342,1.342,0,0,1,1044.225,207.646Z" transform="translate(-1001.326 -174.736)" fill="url(#linear-gradient-3)" style="mix-blend-mode: color-dodge;isolation: isolate"/>
          <path id="Path_1421" data-name="Path 1421" d="M1004.8,197.825a.966.966,0,1,1-.966-.966A.966.966,0,0,1,1004.8,197.825Z" transform="translate(-982.603 -170.163)" fill="url(#linear-gradient-3)" style="mix-blend-mode: color-dodge;isolation: isolate"/>
          <circle id="Ellipse_877" data-name="Ellipse 877" cx="0.843" cy="0.843" r="0.843" transform="translate(18.144 19.96)" fill="url(#linear-gradient-3)" style="mix-blend-mode: color-dodge;isolation: isolate"/>
          <circle id="Ellipse_878" data-name="Ellipse 878" cx="0.98" cy="0.98" r="0.98" transform="translate(25.202 70.49)" fill="url(#linear-gradient-3)" style="mix-blend-mode: color-dodge;isolation: isolate"/>
          <path id="Path_1422" data-name="Path 1422" d="M1002.953,259.506a.98.98,0,1,1-.98-.98A.98.98,0,0,1,1002.953,259.506Z" transform="translate(-981.696 -200.017)" fill="url(#linear-gradient-3)" style="mix-blend-mode: color-dodge;isolation: isolate"/>
        </g>
      </g>
      <g id="Group_326" data-name="Group 326" transform="translate(388.501 892.414)">
        <g transform="matrix(1, 0, 0, 1, -102.66, -111.71)" filter="url(#Path_1423)">
          <path id="Path_1423-2" data-name="Path 1423" d="M1053.826,235.13a7.8,7.8,0,1,0-12.067,6.536,3.128,3.128,0,0,1,1.416,2.621v6.781a2.847,2.847,0,0,0,2.847,2.847h0a2.848,2.848,0,0,0,2.848-2.847v-6.779a3.076,3.076,0,0,1,1.374-2.6A7.794,7.794,0,0,0,1053.826,235.13Z" transform="translate(-935.56 -115.62)" fill="url(#linear-gradient-3)"/>
        </g>
      </g>
    </g>
    <path id="Path_1372" data-name="Path 1372" d="M1006.1,115.034a75.142,75.142,0,1,0,75.142,75.142A75.142,75.142,0,0,0,1006.1,115.034Zm0,149.535a74.393,74.393,0,1,1,74.393-74.393A74.393,74.393,0,0,1,1006.1,264.569Z" transform="translate(-729.101 740.815)" fill="#4daafb"/>
    <path id="Path_1373" data-name="Path 1373" d="M1004.453,110.743a77.727,77.727,0,1,0,77.642,77.727A77.684,77.684,0,0,0,1004.453,110.743Zm0,149.267a71.54,71.54,0,1,1,71.46-71.54A71.5,71.5,0,0,1,1004.453,260.01Z" transform="translate(-727.453 742.521)" fill="#cfcfcf"/>
    <g id="Group_320" data-name="Group 320" transform="translate(166.854 812)" style="isolation: isolate">
      <path id="Path_1386" data-name="Path 1386" d="M932.413,59.555a116.5,116.5,0,0,1,57.179-14.981v-2.3a118.739,118.739,0,0,0-100,54.64,1.155,1.155,0,0,0,.359,1.6h0a1.148,1.148,0,0,0,1.578-.355A117.45,117.45,0,0,1,932.413,59.555Z" transform="translate(-879.446 -42.271)" fill="#4daafb" style="mix-blend-mode: color-dodge;isolation: isolate"/>
      <path id="Path_1387" data-name="Path 1387" d="M1093.166,167.017A110.21,110.21,0,0,0,984.292,56.756a1.264,1.264,0,0,0-1.273,1.264h0a1.256,1.256,0,0,0,1.248,1.253A107.751,107.751,0,1,1,875.388,167.017v-.055a1.268,1.268,0,0,0-1.268-1.269h0a1.251,1.251,0,0,0-1.247,1.245v.079a110.146,110.146,0,1,0,220.293,0Z" transform="translate(-872.873 -48.027)" fill="#ebebeb" style="mix-blend-mode: color-dodge;isolation: isolate"/>
      <path id="Path_1388" data-name="Path 1388" d="M1055.648,407.772h0a1.242,1.242,0,0,0,1.25,1.243,119.117,119.117,0,0,0,89.789-42.229l-1.89-1.6a116.643,116.643,0,0,1-87.921,41.353A1.235,1.235,0,0,0,1055.648,407.772Z" transform="translate(-945.502 -170.586)" fill="#4daafb" style="mix-blend-mode: color-dodge;isolation: isolate"/>
    </g>
    <g id="Group_317" data-name="Group 317" transform="translate(180.552 833.452)" style="isolation: isolate">
      <path id="Path_1374" data-name="Path 1374" d="M929.1,177.8a70.243,70.243,0,0,0-7.709,28.935l-25.8-.464a96.251,96.251,0,0,1,10.972-41.12Z" transform="translate(-895.589 -113.522)" fill="#ebebeb" style="mix-blend-mode: overlay;isolation: isolate"/>
      <path id="Path_1375" data-name="Path 1375" d="M915.057,282.278a86.429,86.429,0,0,1-9.666-36.21h-9.8a96.192,96.192,0,0,0,10.975,41.115Z" transform="translate(-895.588 -145.676)" fill="#ebebeb" style="mix-blend-mode: overlay;isolation: isolate"/>
      <path id="Path_1376" data-name="Path 1376" d="M1022.172,387.084v-9.815a86.188,86.188,0,0,1-36.238-9.714l-4.907,8.5A95.929,95.929,0,0,0,1022.172,387.084Z" transform="translate(-929.539 -193.951)" fill="#ebebeb" style="mix-blend-mode: overlay;isolation: isolate"/>
      <path id="Path_1377" data-name="Path 1377" d="M1061.993,79.485V89.3a86.179,86.179,0,0,1,36.238,9.714l4.907-8.5A95.917,95.917,0,0,0,1061.993,79.485Z" transform="translate(-961.712 -79.482)" fill="#ebebeb" style="mix-blend-mode: overlay;isolation: isolate"/>
      <path id="Path_1378" data-name="Path 1378" d="M1098.231,367.555a86.188,86.188,0,0,1-36.238,9.714v9.815a95.927,95.927,0,0,0,41.145-11.029Z" transform="translate(-961.712 -193.951)" fill="#ebebeb" style="mix-blend-mode: overlay;isolation: isolate"/>
      <path id="Path_1379" data-name="Path 1379" d="M1022.949,105.387a70.3,70.3,0,0,0-30.068,8.143L981.024,90.516a95.934,95.934,0,0,1,41.149-11.036Z" transform="translate(-929.537 -79.48)" fill="#ebebeb" style="mix-blend-mode: overlay;isolation: isolate"/>
      <path id="Path_1380" data-name="Path 1380" d="M1133.107,112.647a87.243,87.243,0,0,1,26.488,26.545l8.493-4.9a97.1,97.1,0,0,0-30.076-30.139Z" transform="translate(-989.97 -89.283)" fill="#ebebeb" style="mix-blend-mode: overlay;isolation: isolate"/>
      <path id="Path_1381" data-name="Path 1381" d="M963.559,126.342a71.074,71.074,0,0,0-21.6,21.788l-21.818-13.84a97.154,97.154,0,0,1,30.074-30.142Z" transform="translate(-905.346 -89.282)" fill="#ebebeb" style="mix-blend-mode: overlay;isolation: isolate"/>
      <path id="Path_1382" data-name="Path 1382" d="M964.424,324.735l-14.206,21.646a97.2,97.2,0,0,1-30.074-30.141l21.9-13.718A71.1,71.1,0,0,0,964.424,324.735Z" transform="translate(-905.346 -168.109)" fill="#ebebeb" style="mix-blend-mode: overlay;isolation: isolate"/>
      <path id="Path_1383" data-name="Path 1383" d="M1159.6,317.147a87.244,87.244,0,0,1-26.488,26.545l4.906,8.5a97.1,97.1,0,0,0,30.076-30.14Z" transform="translate(-989.97 -173.921)" fill="#ebebeb" style="mix-blend-mode: overlay;isolation: isolate"/>
      <path id="Path_1384" data-name="Path 1384" d="M1183.4,170.057a86.417,86.417,0,0,1,9.665,36.21h9.8a96.2,96.2,0,0,0-10.975-41.115Z" transform="translate(-1009.955 -113.524)" fill="#ebebeb" style="mix-blend-mode: overlay;isolation: isolate"/>
      <path id="Path_1385" data-name="Path 1385" d="M1192.9,245.836a96.243,96.243,0,0,1-10.972,41.114l-23.611-10.645a70.3,70.3,0,0,0,8.769-30.82Z" transform="translate(-999.989 -145.445)" fill="#ebebeb" style="mix-blend-mode: overlay;isolation: isolate"/>
    </g>
  </g>
</svg>
