<svg xmlns="http://www.w3.org/2000/svg" width="99.928" height="93.952" viewBox="0 0 99.928 93.952">
  <g id="Group_5383" data-name="Group 5383" transform="translate(-1102.634 -2001.048)">
    <path id="Icon_feather-shield" data-name="Icon feather-shield" d="M342.719,454.435c10.516,16.27,30.458,26.241,30.458,26.241s36.781-18.39,36.781-45.976V402.517l-36.781-13.793L336.4,402.517v11.44" transform="translate(791.604 1613.324)" fill="none" stroke="#fff" stroke-linecap="round" stroke-linejoin="round" stroke-width="2"/>
    <g id="email_3_" data-name="email (3)" transform="translate(1103.134 2027.5)">
      <g id="Group_10465" transform="translate(10.187 10.391)">
        <path id="Path_11851" d="M-230.4-344.5l16.267,13.093,16.664-13.093" transform="translate(230.598 344.5)" fill="none" stroke="#fff" stroke-linecap="round" stroke-width="2"/>
        <path id="Path_11852" d="M-219.788-339.8-230.5-329.088" transform="translate(230.5 349.124)" fill="none" stroke="#fff" stroke-linecap="round" stroke-width="2"/>
        <path id="Path_11853" d="M-219-339.8l10.712,10.712" transform="translate(241.814 349.124)" fill="none" stroke="#fff" stroke-linecap="round" stroke-width="2"/>
      </g>
      <path id="Path_36131" data-name="Path 36131" d="M44.342,40.176H9.625A9.1,9.1,0,0,1,.5,31.05V9.625A9.1,9.1,0,0,1,9.625.5H44.54a9.1,9.1,0,0,1,9.125,9.125V31.249A9.235,9.235,0,0,1,44.342,40.176Z" fill="none" stroke="#fff" stroke-miterlimit="10" stroke-width="2"/>
    </g>
  </g>
</svg>
