<svg xmlns="http://www.w3.org/2000/svg" xmlns:xlink="http://www.w3.org/1999/xlink" width="233.876" height="201.516" viewBox="0 0 233.876 201.516">
  <defs>
    <linearGradient id="linear-gradient" x1="0.5" x2="0.5" y2="1" gradientUnits="objectBoundingBox">
      <stop offset="0" stop-color="#4daafb"/>
      <stop offset="1" stop-color="#3d56f5"/>
    </linearGradient>
  </defs>
  <g id="Group_508" data-name="Group 508" transform="translate(-566.06 -839.106)">
    <g id="Group_328" data-name="Group 328" transform="translate(567.853 840.784)" style="isolation: isolate">
      <path id="Path_1424" data-name="Path 1424" d="M243.067-628.3l29.675,21.881L293.8-490.384,264.24-450.745H118.128L88.921-490.384l22.1-116.032L140.887-628.3Z" transform="translate(-76.178 634.886)" fill="none" stroke="#000" stroke-miterlimit="10" stroke-width="3.357" opacity="0.1" style="mix-blend-mode: color-dodge;isolation: isolate"/>
      <path id="Path_1425" data-name="Path 1425" d="M227.932-641.187,260.708-617.6,286.7-488.642l-32.494,45.613H88.492L56.406-488.642,83.55-617.6l32.987-23.587Z" transform="translate(-56.406 641.187)" fill="none" stroke="#f5f5f5" stroke-miterlimit="10" stroke-width="3.357" style="mix-blend-mode: color-dodge;isolation: isolate"/>
      <path id="Path_1426" data-name="Path 1426" d="M267.991-604.551l24.156,18.619,13.673,93.541L281.612-462.3H167.9l-23.94-30.087,14.509-93.541,24.322-18.619Z" transform="translate(-109.644 623.279)" fill="none" stroke="#4daafb" stroke-miterlimit="10" stroke-width="0.839" style="mix-blend-mode: color-dodge;isolation: isolate"/>
      <path id="Path_1427" data-name="Path 1427" d="M273.743-598.547l22.8,17.769,12.12,88.1-22.873,27.93H179.59l-22.624-27.93,12.907-88.1,22.957-17.769Z" transform="translate(-117.556 620.344)" fill="none" stroke="#000" stroke-miterlimit="10" stroke-width="1.119" opacity="0.1" style="mix-blend-mode: color-dodge;isolation: isolate"/>
      <path id="Path_1428" data-name="Path 1428" d="M256.795-615.645l26.7,20.162,16.867,103.847-26.7,34.336h-128.3L118.98-491.636l17.795-103.848,26.884-20.162Z" transform="translate(-94.456 628.702)" fill="none" stroke="#000" stroke-miterlimit="10" stroke-width="2.238" opacity="0.2" style="mix-blend-mode: color-dodge;isolation: isolate"/>
    </g>
    <g id="Group_329" data-name="Group 329" transform="translate(-987.032 38)">
      <g id="_3324921_off_video_icon" data-name=" 3324921 off video icon" transform="translate(1655.26 871.003)" style="isolation: isolate">
        <path id="Path_1318" data-name="Path 1318" d="M324.416-482.593a3.421,3.421,0,0,1-2.46-1.067,4.514,4.514,0,0,1-1.207-3.292l.5-15.929a4.391,4.391,0,0,1,1.094-2.792,3.546,3.546,0,0,1,2.63-1.233l2.636-.016h.006a1,1,0,0,1,.786.382l14.874,18.9a1,1,0,0,1,.214.6,4.591,4.591,0,0,1-1.242,3.29,3.485,3.485,0,0,1-2.482,1.085l-15.336.068Zm2.718-22.326-2.147.013a2,2,0,0,0-1.738,2.088l-.5,15.929a2.51,2.51,0,0,0,.641,1.834,1.424,1.424,0,0,0,1.034.462l15.336-.068a1.5,1.5,0,0,0,1.06-.483,2.5,2.5,0,0,0,.663-1.541ZM352.2-486.063a1,1,0,0,1-1-.958l-.585-13.887-6.281,5.456a1,1,0,0,1-1.406-.094l-1.384-1.573a1,1,0,0,1-.249-.642l-.1-5.189A1.923,1.923,0,0,0,339.509-505H339.5l-4.411.028h-.006a1,1,0,0,1-1-.994,1,1,0,0,1,.994-1.006l4.412-.028h.02a3.486,3.486,0,0,1,2.617,1.212,4.31,4.31,0,0,1,1.068,2.8l.09,4.823.485.551,7.1-6.167a1,1,0,0,1,1.051-.163,1,1,0,0,1,.6.876l.672,15.962a1,1,0,0,1-.957,1.041Z" transform="translate(-321.746 512.156)" fill="url(#linear-gradient)"/>
        <path id="Line_1" data-name="Line 1" d="M30.329,36.25a1,1,0,0,1-.758-.348L-.758.652A1,1,0,0,1-.652-.758a1,1,0,0,1,1.41.106L31.087,34.6a1,1,0,0,1-.758,1.652Z" transform="translate(0.507 0)" fill="url(#linear-gradient)"/>
      </g>
      <g id="Group_308" data-name="Group 308" transform="translate(1634.526 850.717)" style="isolation: isolate">
        <path id="Path_1360" data-name="Path 1360" d="M290.294-520.923l-1.993-.164,1.856-22.589,19.7-.165.017,2-17.878.15Z" transform="translate(-287.56 543.02)" fill="url(#linear-gradient)"/>
        <path id="Path_1363" data-name="Path 1363" d="M388.161-521.652l-1.849-20.433-18.385.153-.017-2,20.228-.169,2.015,22.268Z" transform="translate(-320.154 543.092)" fill="url(#linear-gradient)"/>
        <path id="Path_1361" data-name="Path 1361" d="M374.325-437.415l0-2,22.119-.036-2.527-27.817,1.992-.181,2.724,29.994Z" transform="translate(-322.809 521.348)" fill="url(#linear-gradient)"/>
        <path id="Path_1364" data-name="Path 1364" d="M414.824-406.417l-1.945-21.407,15.748-.026,0,2-13.562.022,1.747,19.229Z" transform="translate(-339.247 509.717)" fill="url(#linear-gradient)"/>
        <path id="Line_3" data-name="Line 3" d="M.013,11.236-1,.09,1-.09,2,11.055Z" transform="translate(69.938 31.674)" fill="url(#linear-gradient)"/>
        <path id="Line_4" data-name="Line 4" d="M1,11.175-1,11.011-.085-.082,1.908.082Z" transform="translate(0 32.073)" fill="url(#linear-gradient)"/>
        <path id="Line_5" data-name="Line 5" d="M.008,1.075l-.017-2L8.907-1l.017,2Z" transform="translate(30.442 0.035)" fill="url(#linear-gradient)"/>
        <path id="Line_6" data-name="Line 6" d="M0,1.034l0-2L21.057-1l0,2Z" transform="translate(19.564 83.44)" fill="url(#linear-gradient)"/>
      </g>
      <path id="Icon_feather-shield" data-name="Icon feather-shield" d="M268.386-418.537s16.95-10.989,17.686-26.557l.8-16.882-14.358-6.782-15.445,6.888L255.1-445.028C253.282-429.5,268.386-418.537,268.386-418.537Z" transform="translate(1361.208 1372.467)" fill="url(#linear-gradient)"/>
    </g>
  </g>
</svg>
