<svg xmlns="http://www.w3.org/2000/svg" xmlns:xlink="http://www.w3.org/1999/xlink" width="213.251" height="225.905" viewBox="0 0 213.251 225.905">
  <defs>
    <linearGradient id="linear-gradient" x1="0.5" x2="0.5" y2="1" gradientUnits="objectBoundingBox">
      <stop offset="0" stop-color="#4daafb"/>
      <stop offset="1" stop-color="#3d56f5"/>
    </linearGradient>
  </defs>
  <g id="Group_509" data-name="Group 509" transform="translate(-983.758 -814.212)">
    <g id="Group_462" data-name="Group 462" transform="translate(-494.496 -9.232)">
      <g id="Group_459" data-name="Group 459" transform="translate(1478.255 843.857)" style="isolation: isolate">
        <g id="Group_408" data-name="Group 408" transform="translate(24.739 0)">
          <rect id="Rectangle_293" data-name="Rectangle 293" width="5.822" height="5.741" fill="#d5d5d5"/>
        </g>
        <g id="Group_410" data-name="Group 410" transform="translate(24.739 199.59)">
          <rect id="Rectangle_295" data-name="Rectangle 295" width="5.822" height="5.741" fill="#d5d5d5"/>
        </g>
        <g id="Group_436" data-name="Group 436" transform="translate(0 0)">
          <g id="Group_423" data-name="Group 423" transform="translate(0 72.023)">
            <rect id="Rectangle_296" data-name="Rectangle 296" width="1.566" height="12.702" transform="translate(0 1.566) rotate(-90)" fill="#d5d5d5"/>
          </g>
          <g id="Group_424" data-name="Group 424" transform="translate(0 66.021)">
            <rect id="Rectangle_297" data-name="Rectangle 297" width="1.566" height="12.702" transform="translate(0 1.566) rotate(-90)" fill="#d5d5d5"/>
          </g>
          <g id="Group_425" data-name="Group 425" transform="translate(0 60.019)">
            <rect id="Rectangle_298" data-name="Rectangle 298" width="1.566" height="12.702" transform="translate(0 1.566) rotate(-90)" fill="#d5d5d5"/>
          </g>
          <g id="Group_426" data-name="Group 426" transform="translate(0 54.017)">
            <rect id="Rectangle_299" data-name="Rectangle 299" width="1.566" height="12.702" transform="translate(0 1.566) rotate(-90)" fill="#d5d5d5"/>
          </g>
          <g id="Group_427" data-name="Group 427" transform="translate(0 48.015)">
            <rect id="Rectangle_300" data-name="Rectangle 300" width="1.566" height="12.702" transform="translate(0 1.566) rotate(-90)" fill="#d5d5d5"/>
          </g>
          <g id="Group_428" data-name="Group 428" transform="translate(0 42.013)">
            <rect id="Rectangle_301" data-name="Rectangle 301" width="1.566" height="12.702" transform="translate(0 1.566) rotate(-90)" fill="#d5d5d5"/>
          </g>
          <g id="Group_429" data-name="Group 429" transform="translate(0 36.011)">
            <rect id="Rectangle_302" data-name="Rectangle 302" width="1.566" height="12.702" transform="translate(0 1.566) rotate(-90)" fill="#d5d5d5"/>
          </g>
          <g id="Group_430" data-name="Group 430" transform="translate(0 30.01)">
            <rect id="Rectangle_303" data-name="Rectangle 303" width="1.566" height="12.702" transform="translate(0 1.566) rotate(-90)" fill="#d5d5d5"/>
          </g>
          <g id="Group_431" data-name="Group 431" transform="translate(0 24.008)">
            <rect id="Rectangle_304" data-name="Rectangle 304" width="1.566" height="12.702" transform="translate(0 1.566) rotate(-90)" fill="#d5d5d5"/>
          </g>
          <g id="Group_432" data-name="Group 432" transform="translate(0 18.006)">
            <rect id="Rectangle_305" data-name="Rectangle 305" width="1.566" height="12.702" transform="translate(0 1.566) rotate(-90)" fill="#d5d5d5"/>
          </g>
          <g id="Group_433" data-name="Group 433" transform="translate(0 12.004)">
            <rect id="Rectangle_306" data-name="Rectangle 306" width="1.566" height="12.702" transform="translate(0 1.566) rotate(-90)" fill="#d5d5d5"/>
          </g>
          <g id="Group_434" data-name="Group 434" transform="translate(0 6.002)">
            <rect id="Rectangle_307" data-name="Rectangle 307" width="1.566" height="12.702" transform="translate(0 1.566) rotate(-90)" fill="#d5d5d5"/>
          </g>
          <g id="Group_435" data-name="Group 435" transform="translate(0 0)">
            <rect id="Rectangle_308" data-name="Rectangle 308" width="1.566" height="12.702" transform="translate(0 1.566) rotate(-90)" fill="#d5d5d5"/>
          </g>
        </g>
        <g id="Group_447" data-name="Group 447" transform="translate(6.077 103.729)">
          <g id="Group_437" data-name="Group 437" transform="translate(0 95.526)">
            <path id="Path_1440" data-name="Path 1440" d="M-465.615,533.478a3.06,3.06,0,0,1,3.081-3.038,3.06,3.06,0,0,1,3.08,3.038,3.06,3.06,0,0,1-3.08,3.038A3.06,3.06,0,0,1-465.615,533.478Z" transform="translate(465.615 -530.44)" fill="#d5d5d5"/>
          </g>
          <g id="Group_438" data-name="Group 438" transform="translate(0 84.912)">
            <path id="Path_1441" data-name="Path 1441" d="M-465.615,521.652a3.06,3.06,0,0,1,3.081-3.038,3.06,3.06,0,0,1,3.08,3.038,3.059,3.059,0,0,1-3.08,3.038A3.06,3.06,0,0,1-465.615,521.652Z" transform="translate(465.615 -518.614)" fill="#d5d5d5"/>
          </g>
          <g id="Group_439" data-name="Group 439" transform="translate(0 74.299)">
            <path id="Path_1442" data-name="Path 1442" d="M-465.615,509.826a3.059,3.059,0,0,1,3.081-3.037,3.059,3.059,0,0,1,3.08,3.037,3.059,3.059,0,0,1-3.08,3.038A3.06,3.06,0,0,1-465.615,509.826Z" transform="translate(465.615 -506.789)" fill="#d5d5d5"/>
          </g>
          <g id="Group_440" data-name="Group 440" transform="translate(0 63.684)">
            <path id="Path_1443" data-name="Path 1443" d="M-465.615,498a3.06,3.06,0,0,1,3.081-3.038,3.059,3.059,0,0,1,3.08,3.038,3.06,3.06,0,0,1-3.08,3.038A3.06,3.06,0,0,1-465.615,498Z" transform="translate(465.615 -494.963)" fill="#d5d5d5"/>
          </g>
          <g id="Group_441" data-name="Group 441" transform="translate(0 53.07)">
            <path id="Path_1444" data-name="Path 1444" d="M-465.615,486.175a3.06,3.06,0,0,1,3.081-3.038,3.06,3.06,0,0,1,3.08,3.038,3.06,3.06,0,0,1-3.08,3.038A3.06,3.06,0,0,1-465.615,486.175Z" transform="translate(465.615 -483.137)" fill="#d5d5d5"/>
          </g>
          <g id="Group_442" data-name="Group 442" transform="translate(0 42.456)">
            <path id="Path_1445" data-name="Path 1445" d="M-465.615,474.349a3.06,3.06,0,0,1,3.081-3.038,3.06,3.06,0,0,1,3.08,3.038,3.059,3.059,0,0,1-3.08,3.038A3.06,3.06,0,0,1-465.615,474.349Z" transform="translate(465.615 -471.311)" fill="#d5d5d5"/>
          </g>
          <g id="Group_443" data-name="Group 443" transform="translate(0 31.842)">
            <path id="Path_1446" data-name="Path 1446" d="M-465.615,462.523a3.06,3.06,0,0,1,3.081-3.038,3.06,3.06,0,0,1,3.08,3.038,3.059,3.059,0,0,1-3.08,3.038A3.06,3.06,0,0,1-465.615,462.523Z" transform="translate(465.615 -459.485)" fill="#d5d5d5"/>
          </g>
          <g id="Group_444" data-name="Group 444" transform="translate(0 21.228)">
            <path id="Path_1447" data-name="Path 1447" d="M-465.615,450.7a3.06,3.06,0,0,1,3.081-3.038,3.059,3.059,0,0,1,3.08,3.038,3.059,3.059,0,0,1-3.08,3.037A3.059,3.059,0,0,1-465.615,450.7Z" transform="translate(465.615 -447.66)" fill="#d5d5d5"/>
          </g>
          <g id="Group_445" data-name="Group 445" transform="translate(0 10.614)">
            <path id="Path_1448" data-name="Path 1448" d="M-465.615,438.872a3.06,3.06,0,0,1,3.081-3.038,3.059,3.059,0,0,1,3.08,3.038,3.06,3.06,0,0,1-3.08,3.038A3.06,3.06,0,0,1-465.615,438.872Z" transform="translate(465.615 -435.834)" fill="#d5d5d5"/>
          </g>
          <g id="Group_446" data-name="Group 446">
            <path id="Path_1449" data-name="Path 1449" d="M-465.615,427.046a3.06,3.06,0,0,1,3.081-3.038,3.06,3.06,0,0,1,3.08,3.038,3.06,3.06,0,0,1-3.08,3.038A3.06,3.06,0,0,1-465.615,427.046Z" transform="translate(465.615 -424.008)" fill="#d5d5d5"/>
          </g>
        </g>
        <path id="Path_1694" data-name="Path 1694" d="M1051.056,4385.5v63.224l9.506,10.459v59.937l-9.506,10.458v61.414" transform="translate(-1032.912 -4385.5)" fill="none" stroke="#4daafb" stroke-width="1"/>
      </g>
      <g id="Group_460" data-name="Group 460" transform="translate(1691.506 1049.35) rotate(180)" style="isolation: isolate">
        <g id="Group_408-2" data-name="Group 408" transform="translate(24.739 20.414)">
          <rect id="Rectangle_293-2" data-name="Rectangle 293" width="5.822" height="5.741" fill="#d5d5d5"/>
        </g>
        <g id="Group_410-2" data-name="Group 410" transform="translate(24.739 220.004)">
          <rect id="Rectangle_295-2" data-name="Rectangle 295" width="5.822" height="5.741" fill="#d5d5d5"/>
        </g>
        <g id="Group_436-2" data-name="Group 436" transform="translate(0 20.414)">
          <g id="Group_423-2" data-name="Group 423" transform="translate(0 72.023)">
            <rect id="Rectangle_296-2" data-name="Rectangle 296" width="1.566" height="12.702" transform="translate(0 1.566) rotate(-90)" fill="#d5d5d5"/>
          </g>
          <g id="Group_424-2" data-name="Group 424" transform="translate(0 66.021)">
            <rect id="Rectangle_297-2" data-name="Rectangle 297" width="1.566" height="12.702" transform="translate(0 1.566) rotate(-90)" fill="#d5d5d5"/>
          </g>
          <g id="Group_425-2" data-name="Group 425" transform="translate(0 60.019)">
            <rect id="Rectangle_298-2" data-name="Rectangle 298" width="1.566" height="12.702" transform="translate(0 1.566) rotate(-90)" fill="#d5d5d5"/>
          </g>
          <g id="Group_426-2" data-name="Group 426" transform="translate(0 54.017)">
            <rect id="Rectangle_299-2" data-name="Rectangle 299" width="1.566" height="12.702" transform="translate(0 1.566) rotate(-90)" fill="#d5d5d5"/>
          </g>
          <g id="Group_427-2" data-name="Group 427" transform="translate(0 48.015)">
            <rect id="Rectangle_300-2" data-name="Rectangle 300" width="1.566" height="12.702" transform="translate(0 1.566) rotate(-90)" fill="#d5d5d5"/>
          </g>
          <g id="Group_428-2" data-name="Group 428" transform="translate(0 42.013)">
            <rect id="Rectangle_301-2" data-name="Rectangle 301" width="1.566" height="12.702" transform="translate(0 1.566) rotate(-90)" fill="#d5d5d5"/>
          </g>
          <g id="Group_429-2" data-name="Group 429" transform="translate(0 36.011)">
            <rect id="Rectangle_302-2" data-name="Rectangle 302" width="1.566" height="12.702" transform="translate(0 1.566) rotate(-90)" fill="#d5d5d5"/>
          </g>
          <g id="Group_430-2" data-name="Group 430" transform="translate(0 30.01)">
            <rect id="Rectangle_303-2" data-name="Rectangle 303" width="1.566" height="12.702" transform="translate(0 1.566) rotate(-90)" fill="#d5d5d5"/>
          </g>
          <g id="Group_431-2" data-name="Group 431" transform="translate(0 24.008)">
            <rect id="Rectangle_304-2" data-name="Rectangle 304" width="1.566" height="12.702" transform="translate(0 1.566) rotate(-90)" fill="#d5d5d5"/>
          </g>
          <g id="Group_432-2" data-name="Group 432" transform="translate(0 18.006)">
            <rect id="Rectangle_305-2" data-name="Rectangle 305" width="1.566" height="12.702" transform="translate(0 1.566) rotate(-90)" fill="#d5d5d5"/>
          </g>
          <g id="Group_433-2" data-name="Group 433" transform="translate(0 12.004)">
            <rect id="Rectangle_306-2" data-name="Rectangle 306" width="1.566" height="12.702" transform="translate(0 1.566) rotate(-90)" fill="#d5d5d5"/>
          </g>
          <g id="Group_434-2" data-name="Group 434" transform="translate(0 6.002)">
            <rect id="Rectangle_307-2" data-name="Rectangle 307" width="1.566" height="12.702" transform="translate(0 1.566) rotate(-90)" fill="#d5d5d5"/>
          </g>
          <g id="Group_435-2" data-name="Group 435" transform="translate(0 0)">
            <rect id="Rectangle_308-2" data-name="Rectangle 308" width="1.566" height="12.702" transform="translate(0 1.566) rotate(-90)" fill="#d5d5d5"/>
          </g>
        </g>
        <g id="Group_447-2" data-name="Group 447" transform="translate(6.077 124.142)">
          <g id="Group_437-2" data-name="Group 437" transform="translate(0 95.526)">
            <path id="Path_1440-2" data-name="Path 1440" d="M0,3.038A3.06,3.06,0,0,1,3.081,0a3.06,3.06,0,0,1,3.08,3.038,3.06,3.06,0,0,1-3.08,3.038A3.06,3.06,0,0,1,0,3.038Z" fill="#d5d5d5"/>
          </g>
          <g id="Group_438-2" data-name="Group 438" transform="translate(0 84.912)">
            <path id="Path_1441-2" data-name="Path 1441" d="M0,3.038A3.06,3.06,0,0,1,3.081,0a3.06,3.06,0,0,1,3.08,3.038,3.059,3.059,0,0,1-3.08,3.038A3.06,3.06,0,0,1,0,3.038Z" fill="#d5d5d5"/>
          </g>
          <g id="Group_439-2" data-name="Group 439" transform="translate(0 74.299)">
            <path id="Path_1442-2" data-name="Path 1442" d="M0,3.037A3.059,3.059,0,0,1,3.081,0a3.059,3.059,0,0,1,3.08,3.037,3.059,3.059,0,0,1-3.08,3.038A3.06,3.06,0,0,1,0,3.037Z" fill="#d5d5d5"/>
          </g>
          <g id="Group_440-2" data-name="Group 440" transform="translate(0 63.684)">
            <path id="Path_1443-2" data-name="Path 1443" d="M0,3.038A3.06,3.06,0,0,1,3.081,0a3.059,3.059,0,0,1,3.08,3.038,3.06,3.06,0,0,1-3.08,3.038A3.06,3.06,0,0,1,0,3.038Z" fill="#d5d5d5"/>
          </g>
          <g id="Group_441-2" data-name="Group 441" transform="translate(0 53.07)">
            <path id="Path_1444-2" data-name="Path 1444" d="M0,3.038A3.06,3.06,0,0,1,3.081,0a3.06,3.06,0,0,1,3.08,3.038,3.06,3.06,0,0,1-3.08,3.038A3.06,3.06,0,0,1,0,3.038Z" fill="#d5d5d5"/>
          </g>
          <g id="Group_442-2" data-name="Group 442" transform="translate(0 42.456)">
            <path id="Path_1445-2" data-name="Path 1445" d="M0,3.038A3.06,3.06,0,0,1,3.081,0a3.06,3.06,0,0,1,3.08,3.038,3.059,3.059,0,0,1-3.08,3.038A3.06,3.06,0,0,1,0,3.038Z" fill="#d5d5d5"/>
          </g>
          <g id="Group_443-2" data-name="Group 443" transform="translate(0 31.842)">
            <path id="Path_1446-2" data-name="Path 1446" d="M0,3.038A3.06,3.06,0,0,1,3.081,0a3.06,3.06,0,0,1,3.08,3.038,3.059,3.059,0,0,1-3.08,3.038A3.06,3.06,0,0,1,0,3.038Z" fill="#d5d5d5"/>
          </g>
          <g id="Group_444-2" data-name="Group 444" transform="translate(0 21.228)">
            <path id="Path_1447-2" data-name="Path 1447" d="M0,3.038A3.06,3.06,0,0,1,3.081,0a3.059,3.059,0,0,1,3.08,3.038,3.059,3.059,0,0,1-3.08,3.037A3.059,3.059,0,0,1,0,3.038Z" transform="translate(0 0)" fill="#d5d5d5"/>
          </g>
          <g id="Group_445-2" data-name="Group 445" transform="translate(0 10.614)">
            <path id="Path_1448-2" data-name="Path 1448" d="M0,3.038A3.06,3.06,0,0,1,3.081,0a3.059,3.059,0,0,1,3.08,3.038,3.06,3.06,0,0,1-3.08,3.038A3.06,3.06,0,0,1,0,3.038Z" fill="#d5d5d5"/>
          </g>
          <g id="Group_446-2" data-name="Group 446">
            <path id="Path_1449-2" data-name="Path 1449" d="M0,3.038A3.06,3.06,0,0,1,3.081,0a3.06,3.06,0,0,1,3.08,3.038,3.06,3.06,0,0,1-3.08,3.038A3.06,3.06,0,0,1,0,3.038Z" fill="#d5d5d5"/>
          </g>
        </g>
        <path id="Path_1694-2" data-name="Path 1694" d="M0,0V63.224L9.506,73.683V133.62L0,144.079v61.413" transform="translate(18.144 20.414)" fill="none" stroke="#4daafb" stroke-width="1"/>
      </g>
      <g id="Group_461" data-name="Group 461" transform="translate(-118 -68)">
        <g id="Group_308" data-name="Group 308" transform="translate(1663.808 949.605)" style="isolation: isolate">
          <g id="Rectangle_212" data-name="Rectangle 212">
            <rect id="Rectangle_213" data-name="Rectangle 213" width="73.4" height="129.997" rx="4" fill="none"/>
            <path id="Path_1349" data-name="Path 1349" d="M-260.479,443.489H-326.8a3.657,3.657,0,0,1-3.653-3.653V316.914a3.657,3.657,0,0,1,3.653-3.653h66.325a3.657,3.657,0,0,1,3.653,3.653v15.264h-2V316.914a1.655,1.655,0,0,0-1.653-1.653H-326.8a1.655,1.655,0,0,0-1.653,1.653V439.836a1.655,1.655,0,0,0,1.653,1.653h66.325a1.655,1.655,0,0,0,1.653-1.653V391.7h2v48.139A3.657,3.657,0,0,1-260.479,443.489Z" transform="translate(330.341 -313.377)" fill="url(#linear-gradient)"/>
          </g>
          <path id="Line_3" data-name="Line 3" d="M70.317,1H0V-1H70.317Z" transform="translate(0.793 102.4)" fill="url(#linear-gradient)"/>
          <path id="Line_4" data-name="Line 4" d="M16.457,1H0V-1H16.457Z" transform="translate(27.723 115.866)" fill="url(#linear-gradient)"/>
        </g>
        <g id="Group_458" data-name="Group 458" transform="translate(1706.514 969.647)" style="isolation: isolate">
          <g id="Group_457" data-name="Group 457" transform="translate(0 0)">
            <path id="Path_1350" data-name="Path 1350" d="M329.874,436.471a3.834,3.834,0,0,1-.676-.422,1.352,1.352,0,0,1-.408-1.415,1.369,1.369,0,0,1,1.1-1.057,4.426,4.426,0,0,1,.858-.062q6.016-.005,12.03,0h.74v-.741q0-6.015,0-12.03a5.187,5.187,0,0,1,.029-.689,1.459,1.459,0,0,1,2.746-.534c.066.115.122.237.182.355v15.56l-1.037,1.037Z" transform="translate(-287.458 -377.457)" fill="url(#linear-gradient)"/>
            <path id="Path_1351" data-name="Path 1351" d="M346.471,355.6a1.7,1.7,0,0,1-1.047,1.066,1.449,1.449,0,0,1-1.835-1.023,3.778,3.778,0,0,1-.074-.856q-.006-6.043,0-12.086v-.739h-.741q-6.015,0-12.029,0a5.178,5.178,0,0,1-.689-.03,1.471,1.471,0,0,1-1.3-1.2,1.493,1.493,0,0,1,.812-1.574c.1-.053.2-.1.306-.153h15.56l1.037,1.037Z" transform="translate(-287.457 -339)" fill="url(#linear-gradient)"/>
            <path id="Path_1352" data-name="Path 1352" d="M249,419.874a3.921,3.921,0,0,1,.421-.675,1.351,1.351,0,0,1,1.414-.41,1.369,1.369,0,0,1,1.059,1.094,4.391,4.391,0,0,1,.062.858q.006,6.015,0,12.03v.742h.739q6.016,0,12.03,0a5.181,5.181,0,0,1,.689.03,1.464,1.464,0,0,1,1.306,1.258,1.5,1.5,0,0,1-.819,1.519c-.1.054-.2.1-.306.151h-15.56L249,435.434Z" transform="translate(-249 -377.458)" fill="url(#linear-gradient)"/>
            <path id="Path_1353" data-name="Path 1353" d="M265.6,339a1.7,1.7,0,0,1,1.066,1.046,1.451,1.451,0,0,1-1.023,1.836,3.753,3.753,0,0,1-.856.074q-6.043.007-12.086,0h-.74v.74q0,6.014,0,12.028a5.171,5.171,0,0,1-.03.689,1.458,1.458,0,0,1-2.745.536c-.066-.115-.122-.236-.183-.354v-15.56L250.037,339Z" transform="translate(-249 -339)" fill="url(#linear-gradient)"/>
          </g>
          <g id="Group_456" data-name="Group 456" transform="translate(13.042 13.04)">
            <path id="Path_1354" data-name="Path 1354" d="M289.188,396.1H276.1c-1.166,0-1.874-.562-1.876-1.483s.707-1.485,1.872-1.485q7.086,0,14.174,0c1.35,0,1.888.535,1.888,1.88q0,6.165,0,12.33v.769h13.03a5.341,5.341,0,0,1,.576.011,1.5,1.5,0,0,1,1.358,1.407,1.471,1.471,0,0,1-1.238,1.505,3.8,3.8,0,0,1-.688.042q-7.058,0-14.116,0c-1.349,0-1.89-.539-1.89-1.882q0-6.165,0-12.33Z" transform="translate(-274.207 -378.15)" fill="url(#linear-gradient)"/>
            <path id="Path_1355" data-name="Path 1355" d="M322.255,375.038c-1.266,0-2.532.008-3.8,0a1.445,1.445,0,0,1-1.608-1.6q-.015-3.8,0-7.6a1.479,1.479,0,0,1,1.644-1.64q3.77-.018,7.539,0a1.5,1.5,0,0,1,1.653,1.647q.019,3.769,0,7.539a1.487,1.487,0,0,1-1.689,1.65C324.748,375.043,323.5,375.038,322.255,375.038Zm-2.441-7.858v4.895h4.864v-4.895Z" transform="translate(-294.764 -364.191)" fill="url(#linear-gradient)"/>
            <path id="Path_1356" data-name="Path 1356" d="M279.6,375.038c-1.249,0-2.5.007-3.746,0A1.48,1.48,0,0,1,274.2,373.4q-.018-3.775,0-7.55a1.5,1.5,0,0,1,1.654-1.65q3.775-.019,7.55,0a1.479,1.479,0,0,1,1.633,1.654q.015,3.775,0,7.55a1.458,1.458,0,0,1-1.639,1.632C282.134,375.046,280.865,375.038,279.6,375.038Zm2.487-7.837H277.2v4.853h4.885Z" transform="translate(-274.194 -364.19)" fill="url(#linear-gradient)"/>
            <path id="Path_1357" data-name="Path 1357" d="M279.63,406.853c1.266,0,2.532-.007,3.8,0a1.442,1.442,0,0,1,1.611,1.595q.018,3.8,0,7.6a1.48,1.48,0,0,1-1.64,1.644q-3.769.019-7.539,0a1.5,1.5,0,0,1-1.657-1.644q-.019-3.8,0-7.6a1.466,1.466,0,0,1,1.626-1.594C277.1,406.845,278.363,406.853,279.63,406.853Zm-2.424,2.964v4.875h4.871v-4.875Z" transform="translate(-274.194 -384.767)" fill="url(#linear-gradient)"/>
            <path id="Path_1358" data-name="Path 1358" d="M319.776,396.139c0,.253,0,.479,0,.7,0,1.613.011,3.227-.008,4.84a1.428,1.428,0,0,1-1.448,1.471,1.412,1.412,0,0,1-1.465-1.45q-.031-3.543,0-7.088a1.4,1.4,0,0,1,1.448-1.475q3.947-.038,7.895,0a1.42,1.42,0,0,1,1.475,1.462q.046,3.543,0,7.087a1.424,1.424,0,0,1-1.519,1.463,1.463,1.463,0,0,1-1.427-1.562c-.014-1.594,0-3.189,0-4.783v-.668Z" transform="translate(-294.764 -378.145)" fill="url(#linear-gradient)"/>
            <path id="Path_1359" data-name="Path 1359" d="M306.092,369.6c0,1.3.008,2.607,0,3.911a1.436,1.436,0,0,1-.845,1.392,1.251,1.251,0,0,1-1.5-.167,2.077,2.077,0,0,1-.589-1.233c-.054-2.568-.036-5.138-.022-7.707a1.482,1.482,0,1,1,2.957.008C306.106,367.072,306.093,368.338,306.092,369.6Z" transform="translate(-288.145 -364.205)" fill="url(#linear-gradient)"/>
          </g>
        </g>
      </g>
    </g>
  </g>
</svg>
