<svg xmlns="http://www.w3.org/2000/svg" xmlns:xlink="http://www.w3.org/1999/xlink" width="270.036" height="186.56" viewBox="0 0 270.036 186.56">
  <defs>
    <linearGradient id="linear-gradient" x1="0.5" x2="0.5" y2="1" gradientUnits="objectBoundingBox">
      <stop offset="0" stop-color="#f6f6f6"/>
      <stop offset="0.999" stop-color="#dbdbdb"/>
      <stop offset="1" stop-color="#fff"/>
    </linearGradient>
    <linearGradient id="linear-gradient-25" x1="0.5" x2="0.5" y2="1" gradientUnits="objectBoundingBox">
      <stop offset="0" stop-color="#4daafb"/>
      <stop offset="1" stop-color="#3d56f5"/>
    </linearGradient>
  </defs>
  <g id="Group_506" data-name="Group 506" transform="translate(-122.657 -1329.91)">
    <g id="Group_471" data-name="Group 471" transform="translate(70 1098.624)" style="isolation: isolate">
      <path id="Line_7" data-name="Line 7" d="M.6,23.175H-.6V0H.6Z" transform="translate(243.597 330.474) rotate(-90)" fill="url(#linear-gradient)"/>
      <path id="Line_8" data-name="Line 8" d="M.6,31.289H-.6V0H.6Z" transform="translate(243.597 342.259) rotate(-90)" fill="url(#linear-gradient)"/>
      <path id="Path_1695" data-name="Path 1695" d="M7.792,79.1h-1.2V40.066L-.6,31.4V0H.6V30.972l7.192,8.661Z" transform="translate(243.597 378.419) rotate(-90)" fill="url(#linear-gradient)"/>
      <path id="Path_1696" data-name="Path 1696" d="M7.88,58.257l-1.2-.02.337-20.392L-.6,27.574V0H.6V27.178l7.623,10.28Z" transform="translate(243.597 362.947) rotate(-90)" fill="url(#linear-gradient)"/>
      <path id="Line_9" data-name="Line 9" d="M.6,17H-.6V0H.6Z" transform="translate(243.597 352.766) rotate(-90)" fill="url(#linear-gradient)"/>
      <path id="Path_1697" data-name="Path 1697" d="M5.378,41.392-.6,33.952V0H.6V33.529L6.314,40.64Z" transform="translate(243.597 385.615) rotate(-90)" fill="url(#linear-gradient)"/>
      <path id="Line_7-2" data-name="Line 7" d="M.6,23.175H-.6V0H.6Z" transform="translate(243.597 318.171) rotate(-90)" fill="url(#linear-gradient)"/>
      <path id="Line_8-2" data-name="Line 8" d="M.6,31.289H-.6V0H.6Z" transform="translate(243.597 306.386) rotate(-90)" fill="url(#linear-gradient)"/>
      <path id="Path_1695-2" data-name="Path 1695" d="M.6,79.1H-.6V39.633l7.192-8.661V0h1.2V31.4L.6,40.066Z" transform="translate(243.597 278.805) rotate(-90)" fill="url(#linear-gradient)"/>
      <path id="Path_1696-2" data-name="Path 1696" d="M-.26,58.257-.6,37.458,7.02,27.178V0h1.2V27.574L.6,37.846.94,58.237Z" transform="translate(243.597 287.043) rotate(-90)" fill="url(#linear-gradient)"/>
      <path id="Line_9-2" data-name="Line 9" d="M.6,17H-.6V0H.6Z" transform="translate(243.597 295.879) rotate(-90)" fill="url(#linear-gradient)"/>
      <path id="Path_1697-2" data-name="Path 1697" d="M.468,41.392l-.935-.752,5.714-7.111V0h1.2V33.952Z" transform="translate(243.597 273.263) rotate(-90)" fill="url(#linear-gradient)"/>
      <path id="Line_7-3" data-name="Line 7" d="M.6,23.175H-.6V0H.6Z" transform="translate(108.578 330.474) rotate(-90)" fill="url(#linear-gradient)"/>
      <path id="Line_8-3" data-name="Line 8" d="M.6,31.289H-.6V0H.6Z" transform="translate(100.464 342.259) rotate(-90)" fill="url(#linear-gradient)"/>
      <path id="Path_1695-3" data-name="Path 1695" d="M.6,79.1H-.6v-31.4L6.592,39.03V0h1.2V39.463L.6,48.125Z" transform="translate(52.657 378.419) rotate(-90)" fill="url(#linear-gradient)"/>
      <path id="Path_1696-3" data-name="Path 1696" d="M.6,58.247H-.6V30.673L7.017,20.4,6.68.01l1.2-.02.343,20.8L.6,31.069Z" transform="translate(73.506 362.947) rotate(-90)" fill="url(#linear-gradient)"/>
      <path id="Line_9-3" data-name="Line 9" d="M.6,17H-.6V0H.6Z" transform="translate(114.756 352.766) rotate(-90)" fill="url(#linear-gradient)"/>
      <path id="Path_1697-3" data-name="Path 1697" d="M.6,41.016H-.6V7.064L5.378-.376l.935.752L.6,7.487Z" transform="translate(90.737 385.615) rotate(-90)" fill="url(#linear-gradient)"/>
      <path id="Path_1700" data-name="Path 1700" d="M.6,14.533H-.6V0H.6Z" transform="translate(108.578 318.171) rotate(-90)" fill="url(#linear-gradient)"/>
      <path id="Path_1699" data-name="Path 1699" d="M.6,25.1H-.6V0H.6Z" transform="translate(100.464 306.386) rotate(-90)" fill="url(#linear-gradient)"/>
      <path id="Path_1695-4" data-name="Path 1695" d="M7.792,71.805h-1.2V48.125L-.6,39.463V0H.6V39.03l7.192,8.661Z" transform="translate(52.657 278.805) rotate(-90)" fill="url(#linear-gradient)"/>
      <path id="Path_1696-4" data-name="Path 1696" d="M8.22,46.4H7.02V31.069L-.6,20.789-.26-.01.94.01.6,20.4,8.22,30.673Z" transform="translate(73.506 287.043) rotate(-90)" fill="url(#linear-gradient)"/>
      <path id="Path_1698" data-name="Path 1698" d="M.6,13.336H-.6V0H.6Z" transform="translate(114.756 295.879) rotate(-90)" fill="url(#linear-gradient)"/>
      <path id="Path_1697-4" data-name="Path 1697" d="M6.446,28.238h-1.2V7.487L-.468.376.468-.376l5.978,7.44Z" transform="translate(90.737 273.263) rotate(-90)" fill="url(#linear-gradient)"/>
    </g>
    <g id="Group_468" data-name="Group 468" transform="translate(-213.998 2078.715)" style="isolation: isolate">
      <path id="Path_1335" data-name="Path 1335" d="M544.2-562.863H454.672a1,1,0,0,1-1-1V-607.7a1,1,0,0,1,1-1,1,1,0,0,1,1,1v42.84H543.2v-61.366a1,1,0,0,1,1-1,1,1,0,0,1,1,1v62.366A1,1,0,0,1,544.2-562.863Z" transform="translate(-26.831 -46.79)" fill="url(#linear-gradient-25)"/>
      <path id="Path_1335-2" data-name="Path 1335" d="M531.8-610.216a1,1,0,0,1-.581-.186l-18.185-12.978a1,1,0,0,1-.233-1.395,1,1,0,0,1,1.395-.233l17.5,12.488,43.266-42.921h-18a1,1,0,0,1-1-1,1,1,0,0,1,1-1h20.426a1,1,0,0,1,.925.619,1,1,0,0,1-.22,1.091l-45.589,45.224A1,1,0,0,1,531.8-610.216Z" transform="translate(-58.736 -30.437)" fill="url(#linear-gradient-25)"/>
      <path id="Path_1336" data-name="Path 1336" d="M559.973-653.912H547.859a1,1,0,0,1-1-1,1,1,0,0,1,1-1h12.114a1,1,0,0,1,1,1A1,1,0,0,1,559.973-653.912Z" transform="translate(-77.27 -31.265)" fill="url(#linear-gradient-25)"/>
      <path id="Path_1337" data-name="Path 1337" d="M545.985-518.143H483.563a1,1,0,0,1-1-1,1,1,0,0,1,1-1h62.422a1,1,0,0,1,1,1A1,1,0,0,1,545.985-518.143Z" transform="translate(-42.469 -104.752)" fill="url(#linear-gradient-25)"/>
      <g id="Group_306" data-name="Group 306" transform="translate(405.101 -712.675)">
        <g id="Path_1338" data-name="Path 1338">
          <path id="Path_1701" data-name="Path 1701" d="M416.006-643.692a2,2,0,0,1-1.464-.65,2,2,0,0,1-.413-2.186c.648-1.627,1.311-3.281,1.953-4.881q.583-1.453,1.164-2.906.573-1.434,1.142-2.87.471-1.185.942-2.369c.083-.206.165-.41.248-.616h-3.719c-1.173,0-2.137,0-3.034,0a2.159,2.159,0,0,1-1.843-.969,2.008,2.008,0,0,1-.111-1.935,2.9,2.9,0,0,1,.629-.822l0,0c1.38-1.385,2.88-2.885,4.686-4.686l-1.017-.764c-1.869-1.4-3.8-2.858-5.7-4.284-1.285-.962-2.595-1.938-3.862-2.882l-.658-.49a2.036,2.036,0,0,1-.805-2.1,2.011,2.011,0,0,1,1.66-1.612c2.471-.489,4.963-.988,7.3-1.457l6.469-1.3c-.109-.221-.216-.439-.325-.657q-.689-1.377-1.381-2.754t-1.38-2.752l-.372-.742c-1.233-2.46-2.508-5-3.759-7.508-.878-1.758-1.769-3.546-2.63-5.275l-1.454-2.917c-.093-.186-.188-.372-.283-.558-.124-.245-.253-.5-.378-.75a2.067,2.067,0,0,1,.554-2.562,1.973,1.973,0,0,1,1.253-.434,2.093,2.093,0,0,1,1.294.445c.892.709,1.794,1.431,2.666,2.129q.846.678,1.693,1.354l2.639,2.1q1.677,1.336,3.352,2.674c.885.708,1.782,1.429,2.649,2.126l.131.1v-1.2q0-3.789,0-7.578a2.046,2.046,0,0,1,2.071-2.152c.062,0,.125,0,.188.008a2.013,2.013,0,0,1,1.547.942c1.161,1.748,2.361,3.553,3.57,5.364.339.508.675,1.01,1.02,1.522l.477-.955,1.845-3.69q1.342-2.685,2.685-5.37a2.031,2.031,0,0,1,1.829-1.118c.063,0,.128,0,.191.009a2.01,2.01,0,0,1,1.808,1.527c.255.888.511,1.79.759,2.662q.236.829.472,1.657l2.315,8.1q.455,1.591.911,3.182c.467-1.862.947-3.767,1.428-5.675a2.042,2.042,0,0,1,1.924-1.579l.082,0a2.1,2.1,0,0,1,1.963,1.443q.488,1.472.976,2.948.506,1.531,1.013,3.061l.088.264c2.086-2.607,4.313-5.391,6.575-8.223,1.294-1.622,2.682-3.362,4.055-5.094a2.287,2.287,0,0,1,1.809-.991,1.991,1.991,0,0,1,1.068.317,2.033,2.033,0,0,1,.872,2.362c-.42,1.5-.853,3.018-1.272,4.488l-.341,1.2c-.845,2.973-1.631,5.731-2.4,8.431q-.531,1.86-1.065,3.721l-.4,1.414,6.068-2.035a2.433,2.433,0,0,1,.774-.133,2.009,2.009,0,0,1,1.577.764,2.083,2.083,0,0,1,.085,2.484c-.818,1.229-1.652,2.477-2.458,3.683l-1.507,2.257c-.483.724-.955,1.438-1.448,2.183.355.239.707.475,1.06.71q2.783,1.855,5.565,3.705l.4.267c.351.234.715.477,1.072.71a2.034,2.034,0,0,1,.949,2.1,2.022,2.022,0,0,1-1.575,1.683c-2.769.687-5.287,1.313-7.7,1.916-.9.226-1.792.451-2.729.688l.194.324,1.356,2.264q2.541,4.244,5.084,8.487c.331.552.67,1.113,1,1.655q.382.632.763,1.264a2.063,2.063,0,0,1-.346,2.7,2.02,2.02,0,0,1-1.339.511,2.2,2.2,0,0,1-1.372-.5c-1.241-.983-2.494-1.991-3.706-2.966l-.217-.174q-.971-.782-1.941-1.565c-1.087-.877-2.211-1.784-3.32-2.671-1.214-.97-2.454-1.952-3.653-2.9l-.219-.173v15.347a2.054,2.054,0,0,1-2,2.185,2.172,2.172,0,0,1-.525-.066,2.255,2.255,0,0,1-1.31-.959c-1.483-2.444-2.975-4.937-4.418-7.347l-1.413-2.359c-.493-.821-.994-1.653-1.486-2.469l-.831,3.33q-.622,2.494-1.245,4.989a2.02,2.02,0,0,1-2,1.588h-.05a2,2,0,0,1-1.992-1.706q-.712-3.567-1.424-7.134l-1.1-5.5-2.2,2.2q-3.333,3.338-6.669,6.676c-2.509,2.509-5.155,5.15-8.09,8.075A2.238,2.238,0,0,1,416.006-643.692Zm-.033-2.052a.255.255,0,0,0,.026.032l.018.017a.428.428,0,0,0,.148-.1c2.934-2.924,5.579-5.565,8.087-8.072q3.336-3.336,6.668-6.675l3.207-3.211c.07-.07.136-.131.207-.2l.119-.11,1.244-1.166.411,1.655c.014.056.027.106.039.153.03.116.058.225.081.344q.684,3.424,1.367,6.851.712,3.567,1.424,7.135a.428.428,0,0,0,.028.094.3.3,0,0,0,.04,0h.012l.031,0a.283.283,0,0,0,.026-.071q.623-2.494,1.245-4.988.5-2.011,1-4.021c.09-.36.182-.718.279-1.1l.134-.522.554-2.169,1.246,1.86.077.113c.038.054.073.106.11.167l.743,1.231c.6.993,1.22,2.021,1.827,3.033l1.414,2.36c1.439,2.4,2.927,4.89,4.4,7.324a.352.352,0,0,0,.1.071h0a.491.491,0,0,0,.03-.183v-19.417l1.72,1.3c.1.073.168.127.242.185l1.5,1.188c1.2.951,2.443,1.935,3.661,2.908,1.112.89,2.238,1.8,3.326,2.677l1.939,1.563.217.174c1.209.972,2.459,1.978,3.695,2.957a.317.317,0,0,0,.127.07.145.145,0,0,0,.03-.021.346.346,0,0,0-.057-.156q-.378-.628-.759-1.258c-.329-.544-.669-1.107-1-1.662q-2.544-4.243-5.084-8.488l-1.356-2.265-.463-.776-.419-.7-.689-1.153,1.3-.329,1.241-.314c.96-.243,1.867-.473,2.793-.7,2.412-.6,4.931-1.229,7.7-1.916a.389.389,0,0,0,.075-.026.308.308,0,0,0,.009-.041.259.259,0,0,0,0-.039.4.4,0,0,0-.072-.057c-.365-.238-.733-.483-1.089-.721l-.4-.265q-2.784-1.852-5.567-3.706c-.437-.292-.874-.585-1.316-.882l-1.4-.939.883-1.335c.571-.864,1.111-1.68,1.665-2.51l1.509-2.258c.806-1.206,1.639-2.452,2.456-3.68.031-.047.044-.094.03-.111a.241.241,0,0,0-.026-.028.484.484,0,0,0-.138.029c-2.364.794-4.857,1.629-7.619,2.554a1.74,1.74,0,0,1-.314.071l-.039.006-1.345.259.166-1.383a1.23,1.23,0,0,1,.044-.237q.442-1.548.886-3.095.533-1.859,1.064-3.719c.771-2.7,1.557-5.457,2.4-8.429l.342-1.2c.418-1.468.851-2.987,1.27-4.481a.4.4,0,0,0,.018-.108l-.023-.017-.01-.006a.851.851,0,0,0-.24.226c-1.375,1.734-2.764,3.476-4.059,5.1-2.4,3.01-4.767,5.964-6.964,8.708-.166.209-.332.408-.507.62l-.258.312-1.14,1.389-.58-1.7c-.078-.23-.156-.455-.232-.677-.155-.45-.3-.875-.445-1.31q-.508-1.533-1.014-3.064-.488-1.474-.976-2.948a.11.11,0,0,0-.066-.071.1.1,0,0,0-.035.006.16.16,0,0,0-.029.067c-.541,2.146-1.081,4.291-1.6,6.374-.176.7-.348,1.4-.53,2.132l-.974,3.936-1.121-3.087c-.015-.042-.028-.075-.039-.1-.025-.065-.048-.125-.07-.2l0-.012-.66-2.3q-.6-2.093-1.2-4.186l-2.315-8.1q-.237-.83-.473-1.66c-.247-.871-.5-1.771-.757-2.655a.385.385,0,0,0-.033-.084l-.034-.005c-.011,0-.044,0-.052.014q-1.343,2.682-2.684,5.367l-1.845,3.69-1.245,2.488-.767,1.533-1.408-2.094c-.527-.783-1.025-1.523-1.529-2.279-1.21-1.813-2.41-3.619-3.57-5.365a.358.358,0,0,0-.046-.058h-.025a.208.208,0,0,0-.046,0,.364.364,0,0,0-.025.15q0,3.786,0,7.575v5.348l-1.62-1.28-.181-.142-.209-.165-1.374-1.1c-.866-.7-1.762-1.417-2.644-2.122q-1.674-1.337-3.35-2.672l-2.641-2.105q-.848-.677-1.7-1.357c-.87-.7-1.77-1.418-2.657-2.123a.1.1,0,0,0-.052-.012h-.007c-.035.034-.034.055-.007.108.121.244.246.492.368.731q.145.285.289.572l1.454,2.918c.861,1.729,1.752,3.516,2.629,5.273,1.25,2.5,2.525,5.046,3.758,7.506l.372.742q.689,1.376,1.379,2.751t1.382,2.756c.189.379.37.749.562,1.141q.168.343.34.694l.575,1.167-1.275.256-7.743,1.552c-2.341.469-4.834.968-7.305,1.457a.437.437,0,0,0-.085.025c0,.006,0,.013-.005.022a.272.272,0,0,0-.007.061.28.28,0,0,0,.047.042l.657.49c1.268.944,2.579,1.921,3.866,2.885,1.9,1.427,3.836,2.88,5.705,4.286l1.119.841.4.3.462.349,1.032.777-1.011.8c-.066.052-.126.1-.174.133s-.093.07-.109.084c-2.027,2.021-3.671,3.664-5.174,5.173l-.006.006a1.978,1.978,0,0,0-.229.252.133.133,0,0,0-.008.02.256.256,0,0,0,.152.037c.9,0,1.859,0,3.03,0h6.69l-.558,1.376-.287.706c-.179.441-.349.857-.517,1.277q-.47,1.18-.94,2.365-.571,1.437-1.144,2.874-.582,1.454-1.165,2.908c-.641,1.6-1.3,3.252-1.952,4.878A.272.272,0,0,0,415.973-645.744Z" transform="translate(-405.101 712.675)" fill="url(#linear-gradient-25)"/>
        </g>
      </g>
    </g>
    <g id="Group_460" data-name="Group 460" transform="translate(380.66 1329.91) rotate(90)" style="isolation: isolate">
      <g id="Group_408" data-name="Group 408" transform="translate(24.739 20.414)">
        <rect id="Rectangle_293" data-name="Rectangle 293" width="5.822" height="5.741" fill="#d5d5d5"/>
      </g>
      <g id="Group_410" data-name="Group 410" transform="translate(24.739 220.004)">
        <rect id="Rectangle_295" data-name="Rectangle 295" width="5.822" height="5.741" fill="#d5d5d5"/>
      </g>
      <g id="Group_436" data-name="Group 436" transform="translate(0 20.414)">
        <g id="Group_423" data-name="Group 423" transform="translate(0 72.023)">
          <rect id="Rectangle_296" data-name="Rectangle 296" width="1.566" height="12.702" transform="translate(0 1.566) rotate(-90)" fill="#d5d5d5"/>
        </g>
        <g id="Group_424" data-name="Group 424" transform="translate(0 66.021)">
          <rect id="Rectangle_297" data-name="Rectangle 297" width="1.566" height="12.702" transform="translate(0 1.566) rotate(-90)" fill="#d5d5d5"/>
        </g>
        <g id="Group_425" data-name="Group 425" transform="translate(0 60.019)">
          <rect id="Rectangle_298" data-name="Rectangle 298" width="1.566" height="12.702" transform="translate(0 1.566) rotate(-90)" fill="#d5d5d5"/>
        </g>
        <g id="Group_426" data-name="Group 426" transform="translate(0 54.017)">
          <rect id="Rectangle_299" data-name="Rectangle 299" width="1.566" height="12.702" transform="translate(0 1.566) rotate(-90)" fill="#d5d5d5"/>
        </g>
        <g id="Group_427" data-name="Group 427" transform="translate(0 48.015)">
          <rect id="Rectangle_300" data-name="Rectangle 300" width="1.566" height="12.702" transform="translate(0 1.566) rotate(-90)" fill="#d5d5d5"/>
        </g>
        <g id="Group_428" data-name="Group 428" transform="translate(0 42.013)">
          <rect id="Rectangle_301" data-name="Rectangle 301" width="1.566" height="12.702" transform="translate(0 1.566) rotate(-90)" fill="#d5d5d5"/>
        </g>
        <g id="Group_429" data-name="Group 429" transform="translate(0 36.011)">
          <rect id="Rectangle_302" data-name="Rectangle 302" width="1.566" height="12.702" transform="translate(0 1.566) rotate(-90)" fill="#d5d5d5"/>
        </g>
        <g id="Group_430" data-name="Group 430" transform="translate(0 30.01)">
          <rect id="Rectangle_303" data-name="Rectangle 303" width="1.566" height="12.702" transform="translate(0 1.566) rotate(-90)" fill="#d5d5d5"/>
        </g>
        <g id="Group_431" data-name="Group 431" transform="translate(0 24.008)">
          <rect id="Rectangle_304" data-name="Rectangle 304" width="1.566" height="12.702" transform="translate(0 1.566) rotate(-90)" fill="#d5d5d5"/>
        </g>
        <g id="Group_432" data-name="Group 432" transform="translate(0 18.006)">
          <rect id="Rectangle_305" data-name="Rectangle 305" width="1.566" height="12.702" transform="translate(0 1.566) rotate(-90)" fill="#d5d5d5"/>
        </g>
        <g id="Group_433" data-name="Group 433" transform="translate(0 12.004)">
          <rect id="Rectangle_306" data-name="Rectangle 306" width="1.566" height="12.702" transform="translate(0 1.566) rotate(-90)" fill="#d5d5d5"/>
        </g>
        <g id="Group_434" data-name="Group 434" transform="translate(0 6.002)">
          <rect id="Rectangle_307" data-name="Rectangle 307" width="1.566" height="12.702" transform="translate(0 1.566) rotate(-90)" fill="#d5d5d5"/>
        </g>
        <g id="Group_435" data-name="Group 435" transform="translate(0 0)">
          <rect id="Rectangle_308" data-name="Rectangle 308" width="1.566" height="12.702" transform="translate(0 1.566) rotate(-90)" fill="#d5d5d5"/>
        </g>
      </g>
      <g id="Group_447" data-name="Group 447" transform="translate(6.077 124.142)">
        <g id="Group_437" data-name="Group 437" transform="translate(0 95.526)">
          <path id="Path_1440" data-name="Path 1440" d="M0,3.038A3.06,3.06,0,0,1,3.081,0a3.06,3.06,0,0,1,3.08,3.038,3.06,3.06,0,0,1-3.08,3.038A3.06,3.06,0,0,1,0,3.038Z" fill="#d5d5d5"/>
        </g>
        <g id="Group_438" data-name="Group 438" transform="translate(0 84.912)">
          <path id="Path_1441" data-name="Path 1441" d="M0,3.038A3.06,3.06,0,0,1,3.081,0a3.06,3.06,0,0,1,3.08,3.038,3.059,3.059,0,0,1-3.08,3.038A3.06,3.06,0,0,1,0,3.038Z" fill="#d5d5d5"/>
        </g>
        <g id="Group_439" data-name="Group 439" transform="translate(0 74.299)">
          <path id="Path_1442" data-name="Path 1442" d="M0,3.037A3.059,3.059,0,0,1,3.081,0a3.059,3.059,0,0,1,3.08,3.037,3.059,3.059,0,0,1-3.08,3.038A3.06,3.06,0,0,1,0,3.037Z" fill="#d5d5d5"/>
        </g>
        <g id="Group_440" data-name="Group 440" transform="translate(0 63.684)">
          <path id="Path_1443" data-name="Path 1443" d="M0,3.038A3.06,3.06,0,0,1,3.081,0a3.059,3.059,0,0,1,3.08,3.038,3.06,3.06,0,0,1-3.08,3.038A3.06,3.06,0,0,1,0,3.038Z" fill="#d5d5d5"/>
        </g>
        <g id="Group_441" data-name="Group 441" transform="translate(0 53.07)">
          <path id="Path_1444" data-name="Path 1444" d="M0,3.038A3.06,3.06,0,0,1,3.081,0a3.06,3.06,0,0,1,3.08,3.038,3.06,3.06,0,0,1-3.08,3.038A3.06,3.06,0,0,1,0,3.038Z" fill="#d5d5d5"/>
        </g>
        <g id="Group_442" data-name="Group 442" transform="translate(0 42.456)">
          <path id="Path_1445" data-name="Path 1445" d="M0,3.038A3.06,3.06,0,0,1,3.081,0a3.06,3.06,0,0,1,3.08,3.038,3.059,3.059,0,0,1-3.08,3.038A3.06,3.06,0,0,1,0,3.038Z" fill="#d5d5d5"/>
        </g>
        <g id="Group_443" data-name="Group 443" transform="translate(0 31.842)">
          <path id="Path_1446" data-name="Path 1446" d="M0,3.038A3.06,3.06,0,0,1,3.081,0a3.06,3.06,0,0,1,3.08,3.038,3.059,3.059,0,0,1-3.08,3.038A3.06,3.06,0,0,1,0,3.038Z" fill="#d5d5d5"/>
        </g>
        <g id="Group_444" data-name="Group 444" transform="translate(0 21.228)">
          <path id="Path_1447" data-name="Path 1447" d="M0,3.038A3.06,3.06,0,0,1,3.081,0a3.059,3.059,0,0,1,3.08,3.038,3.059,3.059,0,0,1-3.08,3.037A3.059,3.059,0,0,1,0,3.038Z" transform="translate(0 0)" fill="#d5d5d5"/>
        </g>
        <g id="Group_445" data-name="Group 445" transform="translate(0 10.614)">
          <path id="Path_1448" data-name="Path 1448" d="M0,3.038A3.06,3.06,0,0,1,3.081,0a3.059,3.059,0,0,1,3.08,3.038,3.06,3.06,0,0,1-3.08,3.038A3.06,3.06,0,0,1,0,3.038Z" fill="#d5d5d5"/>
        </g>
        <g id="Group_446" data-name="Group 446">
          <path id="Path_1449" data-name="Path 1449" d="M0,3.038A3.06,3.06,0,0,1,3.081,0a3.06,3.06,0,0,1,3.08,3.038,3.06,3.06,0,0,1-3.08,3.038A3.06,3.06,0,0,1,0,3.038Z" fill="#d5d5d5"/>
        </g>
      </g>
      <path id="Path_1694" data-name="Path 1694" d="M0,0V63.224L9.506,73.683V133.62L0,144.079v61.413" transform="translate(18.144 20.414)" fill="none" stroke="#4daafb" stroke-width="1"/>
    </g>
    <g id="Group_470" data-name="Group 470" transform="translate(134.34 1516.47) rotate(-90)" style="isolation: isolate">
      <g id="Group_408-2" data-name="Group 408" transform="translate(24.739 20.414)">
        <rect id="Rectangle_293-2" data-name="Rectangle 293" width="5.822" height="5.741" transform="translate(0 -3)" fill="#d5d5d5"/>
      </g>
      <g id="Group_410-2" data-name="Group 410" transform="translate(24.739 220.004)">
        <rect id="Rectangle_295-2" data-name="Rectangle 295" width="5.822" height="5.741" transform="translate(0 6)" fill="#d5d5d5"/>
      </g>
      <g id="Group_436-2" data-name="Group 436" transform="translate(0 20.414)">
        <g id="Group_423-2" data-name="Group 423" transform="translate(0 72.023)">
          <rect id="Rectangle_296-2" data-name="Rectangle 296" width="1.566" height="12.702" transform="translate(0 1.566) rotate(-90)" fill="#d5d5d5"/>
        </g>
        <g id="Group_424-2" data-name="Group 424" transform="translate(0 66.021)">
          <rect id="Rectangle_297-2" data-name="Rectangle 297" width="1.566" height="12.702" transform="translate(0 1.566) rotate(-90)" fill="#d5d5d5"/>
        </g>
        <g id="Group_425-2" data-name="Group 425" transform="translate(0 60.019)">
          <rect id="Rectangle_298-2" data-name="Rectangle 298" width="1.566" height="12.702" transform="translate(0 1.566) rotate(-90)" fill="#d5d5d5"/>
        </g>
        <g id="Group_426-2" data-name="Group 426" transform="translate(0 54.017)">
          <rect id="Rectangle_299-2" data-name="Rectangle 299" width="1.566" height="12.702" transform="translate(0 1.566) rotate(-90)" fill="#d5d5d5"/>
        </g>
        <g id="Group_427-2" data-name="Group 427" transform="translate(0 48.015)">
          <rect id="Rectangle_300-2" data-name="Rectangle 300" width="1.566" height="12.702" transform="translate(0 1.566) rotate(-90)" fill="#d5d5d5"/>
        </g>
        <g id="Group_428-2" data-name="Group 428" transform="translate(0 42.013)">
          <rect id="Rectangle_301-2" data-name="Rectangle 301" width="1.566" height="12.702" transform="translate(0 1.566) rotate(-90)" fill="#d5d5d5"/>
        </g>
        <g id="Group_429-2" data-name="Group 429" transform="translate(0 36.011)">
          <rect id="Rectangle_302-2" data-name="Rectangle 302" width="1.566" height="12.702" transform="translate(0 1.566) rotate(-90)" fill="#d5d5d5"/>
        </g>
        <g id="Group_430-2" data-name="Group 430" transform="translate(0 30.01)">
          <rect id="Rectangle_303-2" data-name="Rectangle 303" width="1.566" height="12.702" transform="translate(0 1.566) rotate(-90)" fill="#d5d5d5"/>
        </g>
        <g id="Group_431-2" data-name="Group 431" transform="translate(0 24.008)">
          <rect id="Rectangle_304-2" data-name="Rectangle 304" width="1.566" height="12.702" transform="translate(0 1.566) rotate(-90)" fill="#d5d5d5"/>
        </g>
        <g id="Group_432-2" data-name="Group 432" transform="translate(0 18.006)">
          <rect id="Rectangle_305-2" data-name="Rectangle 305" width="1.566" height="12.702" transform="translate(0 1.566) rotate(-90)" fill="#d5d5d5"/>
        </g>
        <g id="Group_433-2" data-name="Group 433" transform="translate(0 12.004)">
          <rect id="Rectangle_306-2" data-name="Rectangle 306" width="1.566" height="12.702" transform="translate(0 1.566) rotate(-90)" fill="#d5d5d5"/>
        </g>
        <g id="Group_434-2" data-name="Group 434" transform="translate(0 6.002)">
          <rect id="Rectangle_307-2" data-name="Rectangle 307" width="1.566" height="12.702" transform="translate(0 1.566) rotate(-90)" fill="#d5d5d5"/>
        </g>
        <g id="Group_435-2" data-name="Group 435" transform="translate(0 0)">
          <rect id="Rectangle_308-2" data-name="Rectangle 308" width="1.566" height="12.702" transform="translate(0 1.566) rotate(-90)" fill="#d5d5d5"/>
        </g>
      </g>
      <g id="Group_447-2" data-name="Group 447" transform="translate(6.077 124.142)">
        <g id="Group_437-2" data-name="Group 437" transform="translate(0 95.526)">
          <path id="Path_1440-2" data-name="Path 1440" d="M0,3.038A3.06,3.06,0,0,1,3.081,0a3.06,3.06,0,0,1,3.08,3.038,3.06,3.06,0,0,1-3.08,3.038A3.06,3.06,0,0,1,0,3.038Z" fill="#d5d5d5"/>
        </g>
        <g id="Group_438-2" data-name="Group 438" transform="translate(0 84.912)">
          <path id="Path_1441-2" data-name="Path 1441" d="M0,3.038A3.06,3.06,0,0,1,3.081,0a3.06,3.06,0,0,1,3.08,3.038,3.059,3.059,0,0,1-3.08,3.038A3.06,3.06,0,0,1,0,3.038Z" fill="#d5d5d5"/>
        </g>
        <g id="Group_439-2" data-name="Group 439" transform="translate(0 74.299)">
          <path id="Path_1442-2" data-name="Path 1442" d="M0,3.037A3.059,3.059,0,0,1,3.081,0a3.059,3.059,0,0,1,3.08,3.037,3.059,3.059,0,0,1-3.08,3.038A3.06,3.06,0,0,1,0,3.037Z" fill="#d5d5d5"/>
        </g>
        <g id="Group_440-2" data-name="Group 440" transform="translate(0 63.684)">
          <path id="Path_1443-2" data-name="Path 1443" d="M0,3.038A3.06,3.06,0,0,1,3.081,0a3.059,3.059,0,0,1,3.08,3.038,3.06,3.06,0,0,1-3.08,3.038A3.06,3.06,0,0,1,0,3.038Z" fill="#d5d5d5"/>
        </g>
        <g id="Group_441-2" data-name="Group 441" transform="translate(0 53.07)">
          <path id="Path_1444-2" data-name="Path 1444" d="M0,3.038A3.06,3.06,0,0,1,3.081,0a3.06,3.06,0,0,1,3.08,3.038,3.06,3.06,0,0,1-3.08,3.038A3.06,3.06,0,0,1,0,3.038Z" fill="#d5d5d5"/>
        </g>
        <g id="Group_442-2" data-name="Group 442" transform="translate(0 42.456)">
          <path id="Path_1445-2" data-name="Path 1445" d="M0,3.038A3.06,3.06,0,0,1,3.081,0a3.06,3.06,0,0,1,3.08,3.038,3.059,3.059,0,0,1-3.08,3.038A3.06,3.06,0,0,1,0,3.038Z" fill="#d5d5d5"/>
        </g>
        <g id="Group_443-2" data-name="Group 443" transform="translate(0 31.842)">
          <path id="Path_1446-2" data-name="Path 1446" d="M0,3.038A3.06,3.06,0,0,1,3.081,0a3.06,3.06,0,0,1,3.08,3.038,3.059,3.059,0,0,1-3.08,3.038A3.06,3.06,0,0,1,0,3.038Z" fill="#d5d5d5"/>
        </g>
        <g id="Group_444-2" data-name="Group 444" transform="translate(0 21.228)">
          <path id="Path_1447-2" data-name="Path 1447" d="M0,3.038A3.06,3.06,0,0,1,3.081,0a3.059,3.059,0,0,1,3.08,3.038,3.059,3.059,0,0,1-3.08,3.037A3.059,3.059,0,0,1,0,3.038Z" transform="translate(0 0)" fill="#d5d5d5"/>
        </g>
        <g id="Group_445-2" data-name="Group 445" transform="translate(0 10.614)">
          <path id="Path_1448-2" data-name="Path 1448" d="M0,3.038A3.06,3.06,0,0,1,3.081,0a3.059,3.059,0,0,1,3.08,3.038,3.06,3.06,0,0,1-3.08,3.038A3.06,3.06,0,0,1,0,3.038Z" fill="#d5d5d5"/>
        </g>
        <g id="Group_446-2" data-name="Group 446">
          <path id="Path_1449-2" data-name="Path 1449" d="M0,3.038A3.06,3.06,0,0,1,3.081,0a3.06,3.06,0,0,1,3.08,3.038,3.06,3.06,0,0,1-3.08,3.038A3.06,3.06,0,0,1,0,3.038Z" fill="#d5d5d5"/>
        </g>
      </g>
      <path id="Path_1694-2" data-name="Path 1694" d="M0,0V63.224L9.506,73.683V133.62L0,144.079v61.413" transform="translate(18.144 20.414)" fill="none" stroke="#4daafb" stroke-width="1"/>
    </g>
  </g>
</svg>
