<svg xmlns="http://www.w3.org/2000/svg" width="30" height="26.25" viewBox="0 0 30 26.25">
  <path id="Icon_awesome-quote-left" data-name="Icon awesome-quote-left" d="M27.188,13.125H22.5V9.375a3.753,3.753,0,0,1,3.75-3.75h.469a1.4,1.4,0,0,0,1.406-1.406V1.406A1.4,1.4,0,0,0,26.719,0H26.25a9.372,9.372,0,0,0-9.375,9.375V23.438a2.813,2.813,0,0,0,2.813,2.813h7.5A2.813,2.813,0,0,0,30,23.438v-7.5A2.813,2.813,0,0,0,27.188,13.125Zm-16.875,0H5.625V9.375a3.753,3.753,0,0,1,3.75-3.75h.469A1.4,1.4,0,0,0,11.25,4.219V1.406A1.4,1.4,0,0,0,9.844,0H9.375A9.372,9.372,0,0,0,0,9.375V23.438A2.813,2.813,0,0,0,2.813,26.25h7.5a2.813,2.813,0,0,0,2.813-2.812v-7.5A2.813,2.813,0,0,0,10.313,13.125Z" transform="translate(30 26.25) rotate(180)" fill="#4daafb"/>
</svg>
